<?xml version="1.0" encoding="utf-8"?>
<!-- Generator: Adobe Illustrator 17.1.0, SVG Export Plug-In . SVG Version: 6.00 Build 0)  -->
<!DOCTYPE svg PUBLIC "-//W3C//DTD SVG 1.1//EN" "http://www.w3.org/Graphics/SVG/1.1/DTD/svg11.dtd">
<svg version="1.1" xmlns="http://www.w3.org/2000/svg" xmlns:xlink="http://www.w3.org/1999/xlink" x="0px" y="0px"
	 viewBox="0 0 468 252" enable-background="new 0 0 468 252" xml:space="preserve">
<g id="Layer_2" display="none">
	<g display="inline">
		<text transform="matrix(1 0 0 1 129.3623 184.3521)" fill="#414042" font-family="'MyriadPro-Regular'" font-size="18.6004">The Christ Hospital Health Network</text>
		<text transform="matrix(1 0 0 1 128.3066 101.1025)" fill="#414042" font-family="'MyriadPro-Semibold'" font-size="19.2784">The</text>
		<g>
			<polygon fill="#FDB913" points="115.1,146.3 115.1,135 71.6,135 71.6,162 103.6,137 			"/>
			<path fill="#FFFFFF" d="M108.5,98.5c-0.2-0.5-0.5-1-0.7-1.1c-0.4-0.4-0.9-0.7-1.5-0.9c0-0.2,0.1-0.8,0-0.9
				c-0.8-0.5-1.7-0.7-1.9-1.2c-0.2-0.5-0.1-0.9-0.1-0.9c0.3-0.2,0.6-0.5,0.6-0.9c0-0.4-0.3-0.8-0.6-0.9l-0.4-8.9l-0.1-0.1l-0.1,0.1
				l-0.4,8.9c-0.4,0.2-0.6,0.5-0.6,0.9c0,0.4,0.2,0.7,0.6,0.9c0,0,0.1,0.5-0.1,0.9c-0.1,0.4-1.1,0.7-1.9,1.2c-0.1,0.1-0.1,0.7,0,0.9
				c-0.6,0.2-1.1,0.5-1.5,0.9c-0.2,0.2-0.5,0.7-0.7,1.1c-1.4,3-4.7,8.7-7,8.7c-1,0-2.3,0-3.1,0v2.4h2.5v1.8v0l0,0l0,0h0
				c0,0,0.7,0.1,0.9,0.7c0.1,0.2,0.1,0.6,0.1,0.8v0.2c0,0,0,0,0,0h0v7.2h-1v2.5H88v1.6c0,0,1.4,0.2,1.8,1.4c0.2,0.8,0.2,2,0.2,2v5.3
				H71.6v1.9h43.5v-28C111.2,105.1,109.9,101.4,108.5,98.5z"/>
			<g>
				<path fill="#0076C0" d="M71.6,67.6v65.5H90v-5.3c0,0,0-1.2-0.2-2c-0.4-1.3-1.8-1.4-1.8-1.4v-1.6h3.5v-2.5h1v-7.2h0c0,0,0,0,0,0
					v-0.2c0-0.2,0-0.5-0.1-0.8c-0.2-0.6-0.8-0.7-0.9-0.7h0l0,0l0,0v0v-1.8H89v-2.4c0.7,0,2.1,0,3.1,0c2.3,0,5.6-5.7,7-8.7
					c0.2-0.5,0.5-1,0.7-1.1c0.4-0.4,0.9-0.7,1.5-0.9c0-0.2-0.1-0.8,0-0.9c0.8-0.5,1.7-0.8,1.9-1.2c0.1-0.4,0.1-0.9,0.1-0.9
					c-0.3-0.2-0.6-0.5-0.6-0.9c0-0.4,0.3-0.8,0.6-0.9l0.4-8.9l0.1-0.1l0.1,0.1l0.4,8.9c0.4,0.2,0.6,0.5,0.6,0.9
					c0,0.4-0.2,0.7-0.6,0.9c0,0-0.1,0.4,0.1,0.9c0.2,0.5,1.1,0.7,1.9,1.2c0.1,0.1,0.1,0.7,0,0.9c0.6,0.2,1.1,0.5,1.5,0.9
					c0.2,0.2,0.5,0.7,0.7,1.1c1.3,2.9,2.7,6.5,6.6,8.5V67.6H71.6z"/>
				<g>
					<path fill="#0076C0" d="M98,120.1v0.2h4.4v-5.9C100,115,98,116.9,98,120.1z"/>
					<path fill="#0076C0" d="M104.8,114.4v5.9h4.4v-0.2C109.2,116.9,107.2,115,104.8,114.4z"/>
					<rect x="98" y="122.8" fill="#0076C0" width="4.4" height="10.3"/>
					<rect x="104.8" y="122.8" fill="#0076C0" width="4.4" height="10.3"/>
				</g>
			</g>
		</g>
		<text transform="matrix(1 0 0 1 126.8555 133.1069)" fill="#414042" font-family="'MyriadPro-Semibold'" font-size="39.1387">Christ</text>
		<text transform="matrix(1 0 0 1 229.0811 133.1069)"><tspan x="0" y="0" fill="#414042" font-family="'MyriadPro-Semibold'" font-size="39.1387" letter-spacing="-1">Hospi</tspan><tspan x="90.2" y="0" fill="#414042" font-family="'MyriadPro-Semibold'" font-size="39.1387" letter-spacing="-1">t</tspan><tspan x="102.6" y="0" fill="#414042" font-family="'MyriadPro-Semibold'" font-size="39.1387" letter-spacing="-1">a</tspan><tspan x="120.6" y="0" fill="#414042" font-family="'MyriadPro-Semibold'" font-size="39.1387" letter-spacing="-1">l</tspan></text>
		<text transform="matrix(1 0 0 1 360.7383 110.3677)" fill="#414042" font-family="'MyriadPro-Regular'" font-size="7.3656">TM</text>
	</g>
</g>
<g id="Layer_1">
	<g>
		<path fill="#58585A" d="M145.5,101.1h-3.7v-2h9.8v2h-3.7v11h-2.4V101.1z"/>
		<path fill="#58585A" d="M152.8,98.4h2.4v5.6h0c0.3-0.4,0.7-0.8,1.2-1.1c0.5-0.3,1-0.4,1.6-0.4c1.6,0,3.3,1.1,3.3,4.1v5.5h-2.4
			v-5.3c0-1.3-0.5-2.4-1.8-2.4c-0.9,0-1.6,0.6-1.9,1.3c-0.1,0.2-0.1,0.5-0.1,0.7v5.6h-2.4V98.4z"/>
		<path fill="#58585A" d="M165.4,108c0.1,1.7,1.4,2.4,2.9,2.4c1.1,0,1.9-0.2,2.6-0.4l0.3,1.6c-0.8,0.3-1.9,0.6-3.3,0.6
			c-3,0-4.8-1.9-4.8-4.7c0-2.6,1.6-5,4.6-5c3,0,4,2.5,4,4.6c0,0.4,0,0.8-0.1,1H165.4z M169.6,106.4c0-0.9-0.4-2.3-1.9-2.3
			c-1.5,0-2.1,1.3-2.2,2.3H169.6z"/>
	</g>
	<g>
		<polygon fill="#FDB913" points="128.4,157.2 128.4,145.9 84.9,145.9 84.9,173 116.9,147.9 		"/>
		<path fill="#FFFFFF" d="M121.8,109.5c-0.2-0.5-0.5-1-0.7-1.1c-0.4-0.4-0.9-0.7-1.5-0.9c0-0.2,0.1-0.8,0-0.9
			c-0.8-0.5-1.7-0.7-1.9-1.2c-0.2-0.5-0.1-0.9-0.1-0.9c0.3-0.2,0.6-0.5,0.6-0.9c0-0.4-0.3-0.8-0.6-1l-0.4-8.9l-0.1-0.1l-0.1,0.1
			l-0.4,8.9c-0.4,0.2-0.6,0.5-0.6,1c0,0.4,0.2,0.7,0.6,0.9c0,0,0.1,0.5-0.1,0.9c-0.1,0.4-1.1,0.7-1.9,1.2c-0.1,0.1-0.1,0.7,0,0.9
			c-0.6,0.2-1.1,0.5-1.5,0.9c-0.2,0.2-0.5,0.7-0.7,1.1c-1.4,3-4.7,8.7-7,8.7c-1,0-2.3,0-3.1,0v2.4h2.5v1.8v0l0,0l0,0h0
			c0,0,0.7,0.1,0.9,0.7c0.1,0.2,0.1,0.6,0.1,0.8v0.2c0,0,0,0,0,0h0v7.2h-1v2.5h-3.5v1.6c0,0,1.4,0.2,1.8,1.4c0.2,0.8,0.2,2,0.2,2
			v5.3H84.9v1.9h43.5V118C124.5,116,123.2,112.4,121.8,109.5z"/>
		<g>
			<path fill="#0076C0" d="M84.9,78.6v65.5h18.5v-5.3c0,0,0-1.2-0.2-2c-0.4-1.3-1.8-1.4-1.8-1.4v-1.6h3.5v-2.5h1v-7.2h0c0,0,0,0,0,0
				v-0.2c0-0.2,0-0.5-0.1-0.8c-0.2-0.6-0.8-0.7-0.9-0.7h0l0,0l0,0v0v-1.8h-2.5v-2.4c0.7,0,2.1,0,3.1,0c2.3,0,5.6-5.7,7-8.7
				c0.2-0.5,0.5-1,0.7-1.1c0.4-0.4,0.9-0.7,1.5-0.9c0-0.2-0.1-0.8,0-0.9c0.8-0.5,1.7-0.8,1.9-1.2c0.1-0.4,0.1-0.9,0.1-0.9
				c-0.3-0.2-0.6-0.5-0.6-0.9c0-0.4,0.3-0.8,0.6-1l0.4-8.9l0.1-0.1l0.1,0.1l0.4,8.9c0.4,0.2,0.6,0.5,0.6,1c0,0.4-0.2,0.7-0.6,0.9
				c0,0-0.1,0.4,0.1,0.9c0.2,0.5,1.1,0.7,1.9,1.2c0.1,0.1,0.1,0.7,0,0.9c0.6,0.2,1.1,0.5,1.5,0.9c0.2,0.2,0.5,0.7,0.7,1.1
				c1.3,2.9,2.7,6.5,6.6,8.5V78.6H84.9z"/>
			<g>
				<path fill="#0076C0" d="M111.3,131.1v0.2h4.4v-5.9C113.3,126,111.3,127.9,111.3,131.1z"/>
				<path fill="#0076C0" d="M118.1,125.4v5.9h4.4v-0.2C122.5,127.9,120.5,126,118.1,125.4z"/>
				<rect x="111.3" y="133.7" fill="#0076C0" width="4.4" height="10.3"/>
				<rect x="118.1" y="133.7" fill="#0076C0" width="4.4" height="10.3"/>
			</g>
		</g>
	</g>
	<g>
		<path fill="#58585A" d="M161.8,143.3c-1.1,0.5-3.6,1.2-6.8,1.2c-8.4,0-13.5-5.2-13.5-13.3c0-8.7,6.1-13.9,14.1-13.9
			c3.2,0,5.4,0.6,6.4,1.1l-1,3.8c-1.3-0.5-3-1-5.2-1c-5.4,0-9.2,3.4-9.2,9.7c0,5.8,3.4,9.5,9.2,9.5c1.9,0,4-0.4,5.2-0.9L161.8,143.3
			z"/>
		<path fill="#58585A" d="M164.9,116.2h4.8v11.4h0.1c0.6-0.9,1.4-1.6,2.4-2.2c1-0.5,2.1-0.9,3.3-0.9c3.2,0,6.7,2.2,6.7,8.3v11.2
			h-4.8v-10.7c0-2.7-1-4.9-3.7-4.9c-1.9,0-3.2,1.3-3.8,2.7c-0.2,0.4-0.2,0.9-0.2,1.4v11.4h-4.8V116.2z"/>
		<path fill="#58585A" d="M186.3,131.2c0-2.6,0-4.5-0.2-6.1h4.1l0.2,3.6h0.1c0.9-2.7,3.2-4,5.2-4c0.5,0,0.7,0,1.1,0.1v4.5
			c-0.4-0.1-0.9-0.1-1.4-0.1c-2.3,0-3.9,1.4-4.3,3.6c-0.1,0.4-0.1,0.9-0.1,1.4v9.9h-4.8V131.2z"/>
		<path fill="#58585A" d="M201.8,122.3c-1.6,0-2.7-1.2-2.7-2.6c0-1.5,1.1-2.6,2.7-2.6c1.6,0,2.7,1.1,2.7,2.6
			C204.5,121.1,203.4,122.3,201.8,122.3L201.8,122.3z M199.4,144.1V125h4.8v19.1H199.4z"/>
		<path fill="#58585A" d="M208.3,139.6c1.1,0.7,3.1,1.4,4.9,1.4c2.1,0,3.1-0.9,3.1-2.2c0-1.3-0.8-1.9-3.1-2.8
			c-3.7-1.3-5.2-3.3-5.2-5.6c0-3.4,2.8-5.9,7.2-5.9c2.1,0,4,0.5,5.1,1.1l-1,3.4c-0.8-0.5-2.3-1.1-4-1.1c-1.7,0-2.7,0.9-2.7,2
			c0,1.2,0.9,1.8,3.3,2.7c3.5,1.2,5,3,5.1,5.8c0,3.5-2.7,6-7.8,6c-2.3,0-4.4-0.5-5.8-1.3L208.3,139.6z"/>
		<path fill="#58585A" d="M229.4,120.1v4.9h4.6v3.6h-4.6v8.4c0,2.3,0.6,3.5,2.5,3.5c0.9,0,1.3,0,1.9-0.2l0.1,3.6
			c-0.7,0.3-2,0.5-3.5,0.5c-1.8,0-3.2-0.6-4.1-1.6c-1.1-1.1-1.5-2.9-1.5-5.4v-8.9H222V125h2.7v-3.6L229.4,120.1z"/>
	</g>
	<g>
		<path fill="#58585A" d="M250,117.7v10.6h11.2v-10.6h4.8v26.4h-4.8v-11.6H250v11.6h-4.8v-26.4H250z"/>
		<path fill="#58585A" d="M278.1,144.5c-5.4,0-9.6-3.7-9.6-9.8c0-6.3,4.1-10.1,9.9-10.1c5.7,0,9.5,4,9.5,9.8
			C287.9,141.4,283,144.5,278.1,144.5L278.1,144.5z M278.3,141c2.7,0,4.7-2.7,4.7-6.5c0-3-1.3-6.4-4.6-6.4c-3.4,0-4.8,3.3-4.8,6.5
			C273.5,138.2,275.4,141,278.3,141L278.3,141z"/>
		<path fill="#58585A" d="M290.2,139.6c1.1,0.7,3.1,1.4,4.9,1.4c2.1,0,3.1-0.9,3.1-2.2c0-1.3-0.8-1.9-3.1-2.8
			c-3.7-1.3-5.2-3.3-5.2-5.6c0-3.4,2.8-5.9,7.2-5.9c2.1,0,4,0.5,5.1,1.1l-1,3.4c-0.8-0.5-2.3-1.1-4-1.1c-1.7,0-2.7,0.9-2.7,2
			c0,1.2,0.9,1.8,3.3,2.7c3.5,1.2,5,3,5.1,5.8c0,3.5-2.7,6-7.8,6c-2.3,0-4.4-0.5-5.8-1.3L290.2,139.6z"/>
		<path fill="#58585A" d="M305.2,131.3c0-2.5-0.1-4.5-0.2-6.3h4.2l0.2,2.9h0.1c1.4-2.2,3.6-3.4,6.5-3.4c4.4,0,8,3.8,8,9.7
			c0,6.9-4.3,10.2-8.7,10.2c-2.4,0-4.4-1-5.4-2.5H310v9.9h-4.8V131.3z M310,136.1c0,0.5,0,0.9,0.1,1.3c0.5,2,2.2,3.4,4.3,3.4
			c3.1,0,4.9-2.5,4.9-6.3c0-3.4-1.6-6.1-4.7-6.1c-2,0-3.8,1.4-4.3,3.6c-0.1,0.4-0.2,0.8-0.2,1.2V136.1z"/>
		<path fill="#58585A" d="M329,122.3c-1.6,0-2.7-1.2-2.7-2.6c0-1.5,1.1-2.6,2.7-2.6c1.6,0,2.7,1.1,2.7,2.6
			C331.7,121.1,330.7,122.3,329,122.3L329,122.3z M326.6,144.1V125h4.8v19.1H326.6z"/>
		<path fill="#58585A" d="M340.7,120.1v4.9h4.6v3.6h-4.6v8.4c0,2.3,0.6,3.5,2.5,3.5c0.9,0,1.3,0,1.9-0.2l0.1,3.6
			c-0.7,0.3-2,0.5-3.5,0.5c-1.8,0-3.2-0.6-4.1-1.6c-1.1-1.1-1.5-2.9-1.5-5.4v-8.9h-2.7V125h2.7v-3.6L340.7,120.1z"/>
		<path fill="#58585A" d="M362.4,139.5c0,1.7,0.1,3.4,0.3,4.6h-4.3L358,142h-0.1c-1.1,1.5-3.1,2.5-5.6,2.5c-3.8,0-6-2.8-6-5.7
			c0-4.8,4.3-7.2,11.3-7.2v-0.3c0-1.3-0.5-3.3-3.9-3.3c-1.9,0-3.8,0.6-5.1,1.4l-0.9-3.1c1.4-0.9,3.9-1.7,6.9-1.7
			c6.1,0,7.9,3.9,7.9,8.1V139.5z M357.7,134.8c-3.4,0-6.7,0.7-6.7,3.6c0,1.9,1.2,2.7,2.7,2.7c2,0,3.3-1.3,3.8-2.6
			c0.1-0.4,0.1-0.7,0.1-1.1V134.8z"/>
		<path fill="#58585A" d="M365.6,116.2h4.8v27.8h-4.8V116.2z"/>
	</g>
	<g>
		<path fill="#58585A" d="M375.5,116.9H374v-0.5h3.7v0.5h-1.5v4.4h-0.6V116.9z"/>
		<path fill="#58585A" d="M382.4,119.1c0-0.7-0.1-1.5-0.1-2.1h0c-0.2,0.6-0.4,1.2-0.6,1.9l-0.9,2.4h-0.5l-0.8-2.4
			c-0.2-0.7-0.4-1.3-0.6-1.9h0c0,0.6-0.1,1.5-0.1,2.2l-0.1,2.1h-0.6l0.3-5h0.8l0.8,2.4c0.2,0.6,0.4,1.2,0.5,1.7h0
			c0.1-0.5,0.3-1.1,0.5-1.7l0.9-2.4h0.8l0.3,5h-0.6L382.4,119.1z"/>
	</g>
	<polygon fill="#58585A" points="147,157.3 147,163.7 153.7,163.7 153.7,157.3 156.5,157.3 156.5,173.1 153.7,173.1 153.7,166.2 
		147,166.2 147,173.1 144.1,173.1 144.1,157.3 	"/>
	<path fill="#58585A" d="M161.2,168.2c0.1,2.1,1.7,3,3.5,3c1.3,0,2.3-0.2,3.2-0.5l0.4,2c-1,0.4-2.3,0.7-4,0.7
		c-3.7,0-5.9-2.3-5.9-5.8c0-3.2,1.9-6.1,5.6-6.1c3.7,0,4.9,3,4.9,5.6c0,0.5,0,1-0.1,1.2H161.2z M166.2,166.2c0-1.1-0.4-2.8-2.4-2.8
		c-1.8,0-2.5,1.6-2.6,2.8H166.2z"/>
	<path fill="#58585A" d="M179.6,170.4c0,1,0,2,0.2,2.7h-2.6l-0.2-1.3h-0.1c-0.7,0.9-1.9,1.5-3.4,1.5c-2.3,0-3.6-1.7-3.6-3.4
		c0-2.9,2.6-4.3,6.8-4.3v-0.2c0-0.8-0.3-2-2.3-2c-1.1,0-2.3,0.4-3.1,0.8l-0.6-1.9c0.8-0.5,2.3-1,4.1-1c3.7,0,4.7,2.3,4.7,4.8V170.4z
		 M176.8,167.6c-2,0-4,0.4-4,2.1c0,1.1,0.7,1.6,1.6,1.6c1.2,0,2-0.8,2.3-1.6c0.1-0.2,0.1-0.4,0.1-0.6V167.6z"/>
	<rect x="182.1" y="156.5" fill="#58585A" width="2.9" height="16.7"/>
	<path fill="#58585A" d="M190.8,158.8v2.9h2.7v2.2h-2.7v5c0,1.4,0.4,2.1,1.5,2.1c0.5,0,0.8,0,1.1-0.1l0,2.2
		c-0.4,0.2-1.2,0.3-2.1,0.3c-1.1,0-1.9-0.3-2.5-0.9c-0.6-0.7-0.9-1.7-0.9-3.2v-5.3h-1.6v-2.2h1.6v-2.1L190.8,158.8z"/>
	<path fill="#58585A" d="M195.2,156.5h2.9v6.8h0c0.4-0.5,0.8-1,1.4-1.3c0.6-0.3,1.3-0.5,2-0.5c1.9,0,4,1.3,4,4.9v6.7h-2.9v-6.4
		c0-1.6-0.6-2.9-2.2-2.9c-1.1,0-1.9,0.8-2.3,1.6c-0.1,0.3-0.1,0.6-0.1,0.9v6.8h-2.9V156.5z"/>
	<path fill="#58585A" d="M212.4,173.1v-15.8h3.3l4.1,6.8c1,1.8,2,3.6,2.7,5.3l0,0c-0.2-2.1-0.3-4.1-0.3-6.5v-5.5h2.7v15.8h-3l-4.1-7
		c-1-1.7-2-3.7-2.8-5.4l-0.1,0c0.1,2,0.2,4.1,0.2,6.7v5.7H212.4z"/>
	<path fill="#58585A" d="M229.6,168.2c0.1,2.1,1.7,3,3.5,3c1.3,0,2.3-0.2,3.2-0.5l0.4,2c-1,0.4-2.3,0.7-4,0.7
		c-3.7,0-5.9-2.3-5.9-5.8c0-3.2,1.9-6.1,5.6-6.1c3.7,0,4.9,3,4.9,5.6c0,0.5,0,1-0.1,1.2H229.6z M234.6,166.2c0-1.1-0.4-2.8-2.4-2.8
		c-1.8,0-2.5,1.6-2.7,2.8H234.6z"/>
	<path fill="#58585A" d="M242.4,158.8v2.9h2.7v2.2h-2.7v5c0,1.4,0.4,2.1,1.5,2.1c0.5,0,0.8,0,1.1-0.1l0,2.2
		c-0.4,0.2-1.2,0.3-2.1,0.3c-1.1,0-1.9-0.3-2.5-0.9c-0.6-0.7-0.9-1.7-0.9-3.2v-5.3H238v-2.2h1.6v-2.1L242.4,158.8z"/>
	<path fill="#58585A" d="M248.7,161.7l1.2,5.2c0.3,1.2,0.5,2.5,0.8,3.7h0c0.2-1.2,0.6-2.5,0.9-3.7l1.5-5.2h2.3l1.4,5.1
		c0.3,1.3,0.7,2.6,0.9,3.8h0c0.2-1.2,0.4-2.5,0.8-3.8l1.3-5.1h2.8l-3.6,11.4h-2.7l-1.4-4.6c-0.3-1.2-0.6-2.3-0.9-3.7h0
		c-0.3,1.4-0.5,2.5-0.9,3.7l-1.4,4.6h-2.7l-3.4-11.4H248.7z"/>
	<path fill="#58585A" d="M268.7,173.4c-3.2,0-5.7-2.2-5.7-5.9c0-3.8,2.5-6,5.9-6c3.4,0,5.7,2.4,5.7,5.9
		C274.6,171.5,271.6,173.4,268.7,173.4L268.7,173.4z M268.8,171.3c1.6,0,2.8-1.6,2.8-3.9c0-1.8-0.8-3.8-2.8-3.8c-2,0-2.9,2-2.9,3.9
		C266,169.6,267.1,171.3,268.8,171.3L268.8,171.3z"/>
	<path fill="#58585A" d="M276.4,165.4c0-1.5,0-2.7-0.1-3.7h2.5l0.1,2.2h0.1c0.6-1.6,1.9-2.4,3.1-2.4c0.3,0,0.4,0,0.7,0.1v2.7
		c-0.3,0-0.5-0.1-0.9-0.1c-1.4,0-2.3,0.9-2.6,2.2c0,0.3-0.1,0.6-0.1,0.9v5.9h-2.9V165.4z"/>
	<path fill="#58585A" d="M287.2,166.7L287.2,166.7c0.3-0.4,0.7-0.9,0.9-1.3l2.8-3.7h3.5l-4.2,4.7l4.8,6.8h-3.5l-3.3-5l-1,1.2v3.9
		h-2.9v-16.7h2.9V166.7z"/>
</g>
</svg>
