<?xml version="1.0" encoding="UTF-8" standalone="no"?>
<!-- Generator: Adobe Illustrator 17.0.0, SVG Export Plug-In . SVG Version: 6.00 Build 0)  -->

<svg
   xmlns:dc="http://purl.org/dc/elements/1.1/"
   xmlns:cc="http://creativecommons.org/ns#"
   xmlns:rdf="http://www.w3.org/1999/02/22-rdf-syntax-ns#"
   xmlns:svg="http://www.w3.org/2000/svg"
   xmlns="http://www.w3.org/2000/svg"
   xmlns:sodipodi="http://sodipodi.sourceforge.net/DTD/sodipodi-0.dtd"
   xmlns:inkscape="http://www.inkscape.org/namespaces/inkscape"
   version="1.1"
   id="Layer_1"
   x="0px"
   y="0px"
   width="346.00006"
   height="109.94769"
   viewBox="0 0 346.00006 109.94768"
   enable-background="new 0 0 249.474 90.526"
   xml:space="preserve"
   inkscape:version="0.48.2 r9819"
   sodipodi:docname="logo.svg"><metadata
   id="metadata85"><rdf:RDF><cc:Work
       rdf:about=""><dc:format>image/svg+xml</dc:format><dc:type
         rdf:resource="http://purl.org/dc/dcmitype/StillImage" /></cc:Work></rdf:RDF></metadata><defs
   id="defs83" /><sodipodi:namedview
   pagecolor="#ffffff"
   bordercolor="#666666"
   borderopacity="1"
   objecttolerance="10"
   gridtolerance="10"
   guidetolerance="10"
   inkscape:pageopacity="0"
   inkscape:pageshadow="2"
   inkscape:window-width="1085"
   inkscape:window-height="694"
   id="namedview81"
   showgrid="false"
   fit-margin-top="0"
   fit-margin-left="0"
   fit-margin-right="0"
   fit-margin-bottom="0"
   inkscape:zoom="1.2907157"
   inkscape:cx="172.61151"
   inkscape:cy="52.556839"
   inkscape:window-x="485"
   inkscape:window-y="6"
   inkscape:window-maximized="0"
   inkscape:current-layer="Layer_1" />
<polygon
   points="55.668,31.91 55.668,23.277 52.768,23.277 52.768,21.724 60.465,21.724 60.465,23.277 57.527,23.277 57.527,31.91 "
   id="polygon3"
   style="fill:#ffffff"
   transform="matrix(1.4786261,0,0,1.4786261,-12.013828,-8.3793751)" />
<path
   d="m 78.779732,22.915747 h 2.747287 v 6.47934 h 0.04436 c 0.33417,-0.511604 0.808809,-0.940406 1.366251,-1.228738 0.555963,-0.314948 1.209516,-0.492383 1.895598,-0.492383 1.858633,0 3.803027,1.228739 3.803027,4.712382 v 6.415759 h -2.751723 v -6.120034 c 0,-1.567344 -0.576665,-2.775381 -2.09965,-2.775381 -1.072004,0 -1.832017,0.714176 -2.146965,1.542207 -0.08576,0.249888 -0.110897,0.539698 -0.110897,0.828031 v 6.525177 h -2.747288 v -15.88636 z"
   id="path5"
   inkscape:connector-curvature="0"
   style="fill:#ffffff" />
<path
   d="m 93.466925,34.137041 c 0.07393,1.962137 1.61466,2.815304 3.353525,2.815304 1.274575,0 2.167665,-0.205529 3.022311,-0.492382 l 0.400709,1.879334 c -0.940407,0.39775 -2.234205,0.687561 -3.803027,0.687561 -3.532438,0 -5.605472,-2.167666 -5.605472,-5.496053 0,-3.020834 1.832018,-5.856839 5.31714,-5.856839 3.532437,0 4.694639,2.904022 4.694639,5.300875 0,0.508647 -0.0473,0.909355 -0.0917,1.1622 h -7.28815 z m 4.787792,-1.92665 c 0.01774,-1.003987 -0.428802,-2.658569 -2.259341,-2.658569 -1.701899,0 -2.416075,1.543685 -2.528451,2.658569 h 4.787792 z"
   id="path7"
   inkscape:connector-curvature="0"
   style="fill:#ffffff" />
<polygon
   points="8.125,58.489 8.125,79.72 33.245,60.061 42.289,67.333 42.289,58.489 "
   id="polygon9"
   style="fill:#fcb918"
   transform="matrix(1.4786261,0,0,1.4786261,-12.013828,-8.3793751)" />
<path
   d="m 42.89939,35.844854 c -0.232145,-0.527869 -0.578143,-1.132627 -0.776279,-1.329284 -0.445066,-0.46281 -1.040953,-0.819159 -1.709292,-1.082355 0.05175,-0.224751 0.09315,-0.959628 -0.04436,-1.063132 C 39.494113,31.812641 38.433938,31.601197 38.21658,31.021576 38.003658,30.427168 38.153,29.951051 38.153,29.951051 c 0.380007,-0.199615 0.646159,-0.5811 0.646159,-1.035039 0,-0.495339 -0.313468,-0.92562 -0.755577,-1.107491 L 37.557114,17.543899 37.419601,17.40195 37.293918,17.543899 36.795621,27.808521 c -0.437673,0.181871 -0.74227,0.612152 -0.74227,1.107491 0,0.453939 0.260238,0.835424 0.643202,1.035039 0,0 0.0695,0.59145 -0.07097,1.070525 -0.125683,0.467246 -1.276054,0.791065 -2.151401,1.348507 -0.141948,0.103504 -0.09463,0.838381 -0.05175,1.063132 -0.65651,0.263196 -1.253875,0.619545 -1.704856,1.082355 -0.196657,0.196657 -0.530827,0.801415 -0.7748,1.329284 -1.62501,3.479208 -5.460566,10.103453 -8.14723,10.103453 h -3.579754 v 2.788689 h 2.93803 v 2.046418 0.0015 h 0.0059 c 0.04732,0.01479 0.773321,0.112376 1.00103,0.820638 0.08576,0.27946 0.109418,0.646159 0.109418,0.885697 v 0.184828 0.05027 8.370503 h -1.104534 v 2.855227 h -4.047 v 1.80836 c 0,0 1.58213,0.184828 2.058248,1.682676 0.283896,0.899005 0.238059,2.278563 0.238059,2.278563 v 6.19988 H 0 v 2.182452 H 50.515793 V 45.679197 C 46.010419,43.391762 44.469691,39.192464 42.89939,35.844854"
   id="path11"
   inkscape:connector-curvature="0"
   style="fill:#ffffff" />
<path
   d="M 9e-6,-6.5118609e-8 V 75.921538 h 21.413464 v -6.19988 c 0,0 0.04732,-1.379558 -0.238059,-2.278563 -0.474639,-1.496369 -2.056769,-1.681198 -2.056769,-1.681198 v -1.809838 h 4.047 v -2.855227 h 1.104534 v -8.370503 -0.05027 -0.184828 c 0,-0.239538 -0.02514,-0.606237 -0.109418,-0.885697 -0.227709,-0.708262 -0.955193,-0.805852 -1.00103,-0.819159 h -0.0059 v -0.003 -2.046418 h -2.93803 v -2.788689 h 3.579754 c 2.686664,0 6.52222,-6.624245 8.14723,-10.103453 0.243973,-0.527869 0.578143,-1.131149 0.7748,-1.329284 0.450981,-0.46281 1.048346,-0.819159 1.703377,-1.082355 -0.0414,-0.224751 -0.08872,-0.959628 0.05175,-1.061653 0.875347,-0.557442 2.027197,-0.88274 2.15288,-1.349986 0.138991,-0.479075 0.06949,-1.070525 0.06949,-1.070525 -0.381485,-0.199615 -0.641723,-0.5811 -0.641723,-1.03356 0,-0.49534 0.304597,-0.92562 0.74227,-1.107491 l 0.498297,-10.266101 0.125683,-0.14047 0.136034,0.14047 0.487947,10.266101 c 0.44063,0.181871 0.754099,0.612151 0.754099,1.107491 0,0.45246 -0.264674,0.833945 -0.644681,1.03356 0,0 -0.149341,0.476117 0.06358,1.070525 0.217358,0.579621 1.277533,0.792544 2.152879,1.349986 0.137513,0.102025 0.09611,0.836902 0.04436,1.061653 0.668339,0.263196 1.264226,0.619545 1.707813,1.082355 0.199615,0.198135 0.544135,0.801415 0.777758,1.329284 1.568822,3.34761 3.111029,7.546908 7.616403,9.835822 V -6.5118609e-8 H 9e-6 z"
   id="path13"
   inkscape:connector-curvature="0"
   style="fill:#0d76bd" />
<path
   d="m 30.625314,60.898696 v 0.199614 h 5.08056 v -6.865261 c -2.760595,0.706784 -5.08056,2.929159 -5.08056,6.665647"
   id="path15"
   inkscape:connector-curvature="0"
   style="fill:#0d76bd" />
<path
   d="m 38.59363,54.233049 v 6.865261 h 5.083517 v -0.199614 c 0,-3.737967 -2.321443,-5.958863 -5.083517,-6.665647"
   id="path17"
   inkscape:connector-curvature="0"
   style="fill:#0d76bd" />
<rect
   x="30.625315"
   y="63.952061"
   width="5.0805597"
   height="11.978351"
   id="rect19"
   style="fill:#0d76bd" />
<rect
   x="38.593636"
   y="63.952061"
   width="5.0835166"
   height="11.978351"
   id="rect21"
   style="fill:#0d76bd" />
<path
   d="m 89.298678,75.024011 c -1.314498,0.634331 -4.222956,1.358858 -7.947615,1.358858 -9.711617,0 -15.615771,-6.081589 -15.615771,-15.392498 0,-10.07388 7.041218,-16.111111 16.392049,-16.111111 3.680301,0 6.266418,0.720091 7.396088,1.318935 l -1.178465,4.443271 c -1.449053,-0.635809 -3.49695,-1.176986 -5.991393,-1.176986 -6.222059,0 -10.714125,3.903573 -10.714125,11.258259 0,6.720356 3.903573,10.983235 10.669767,10.983235 2.220896,0 4.586698,-0.455416 6.084546,-1.088268 l 0.904919,4.406305 z"
   id="path23"
   inkscape:connector-curvature="0"
   style="fill:#ffffff" />
<path
   d="M 92.791193,43.647565 H 98.3804 v 13.17308 h 0.08724 c 0.678689,-1.048346 1.63684,-1.911864 2.76947,-2.500357 1.13262,-0.637288 2.4486,-0.996594 3.86069,-0.996594 3.76458,0 7.71399,2.491485 7.71399,9.581498 v 13.028175 h -5.58033 V 63.492206 c 0,-3.177567 -1.18438,-5.62913 -4.26732,-5.62913 -2.17802,0 -3.723179,1.450533 -4.354553,3.127295 -0.187785,0.501254 -0.229187,1.089747 -0.229187,1.687112 V 75.933367 H 92.791193 V 43.647565 z"
   id="path25"
   inkscape:connector-curvature="0"
   style="fill:#ffffff" />
<path
   d="m 117.71639,60.950448 c 0,-3.000133 -0.0414,-5.178149 -0.18335,-7.129935 h 4.81293 l 0.22771,4.17564 h 0.13899 c 1.08531,-3.087372 3.67587,-4.672459 6.08159,-4.672459 0.54414,0 0.86056,0.04584 1.31154,0.133076 v 5.221029 c -0.49238,-0.0902 -0.99363,-0.134555 -1.67528,-0.134555 -2.63343,0 -4.49355,1.67972 -4.99332,4.218521 -0.0887,0.499775 -0.13456,1.089747 -0.13456,1.682676 v 11.488926 h -5.58625 V 60.950448 z"
   id="path27"
   inkscape:connector-curvature="0"
   style="fill:#ffffff" />
<path
   d="m 135.60038,50.642945 c -1.85568,0 -3.0859,-1.364772 -3.0859,-2.995697 0,-1.724078 1.27014,-3.041534 3.13321,-3.041534 1.90743,0 3.09033,1.317456 3.13173,3.041534 0,1.630925 -1.2243,2.995697 -3.13173,2.995697 h -0.0473 z m -2.76503,3.177568 h 5.58329 v 22.112854 h -5.58329 V 53.820513 z"
   id="path29"
   inkscape:connector-curvature="0"
   style="fill:#ffffff" />
<path
   d="m 143.18425,70.752261 c 1.22726,0.7748 3.63003,1.636839 5.62765,1.636839 2.45452,0 3.54427,-1.042432 3.54427,-2.500357 0,-1.497848 -0.90936,-2.217939 -3.63151,-3.224884 -4.31315,-1.447575 -6.08307,-3.807462 -6.08307,-6.440895 0,-3.905052 3.22193,-6.89927 8.34981,-6.89927 2.45156,0 4.58522,0.585536 5.9012,1.317456 l -1.13559,3.902094 c -0.9064,-0.547091 -2.71919,-1.268661 -4.67246,-1.268661 -1.99762,0 -3.08737,0.996594 -3.08737,2.358409 0,1.404695 1.04391,2.039025 3.85626,3.084414 4.047,1.409131 5.85684,3.454071 5.90267,6.720356 0,4.041085 -3.13321,6.946586 -8.99005,6.946586 -2.67483,0 -5.08203,-0.638767 -6.71887,-1.53925 l 1.13706,-4.092837 z"
   id="path31"
   inkscape:connector-curvature="0"
   style="fill:#ffffff" />
<path
   d="m 167.69692,48.148503 v 5.67201 h 5.31566 v 4.17564 h -5.31566 v 9.714574 c 0,2.726586 0.72896,4.092837 2.86262,4.092837 0.99511,0 1.5422,-0.04732 2.17801,-0.227709 l 0.0917,4.215563 c -0.82064,0.322341 -2.31701,0.59293 -4.04257,0.59293 -2.08634,0 -3.76753,-0.67869 -4.8144,-1.815753 -1.22283,-1.268662 -1.76548,-3.316559 -1.76548,-6.219102 v -10.35334 h -3.13321 v -4.17564 h 3.13321 V 49.69071 l 5.49014,-1.542207 z"
   id="path33"
   inkscape:connector-curvature="0"
   style="fill:#ffffff" />
<polygon
   points="146.408,47.902 137.655,47.902 137.655,57.02 133.88,57.02 133.88,36.327 137.655,36.327 137.655,44.613 146.408,44.613 146.408,36.327 150.184,36.327 150.184,57.02 146.408,57.02 "
   id="polygon35"
   style="fill:#ffffff"
   transform="matrix(1.4786261,0,0,1.4786261,-12.013828,-8.3793751)" />
<path
   d="m 224.17156,76.425749 c -6.2191,0 -11.07934,-4.264358 -11.07934,-11.389857 0,-7.270405 4.76561,-11.713676 11.43865,-11.713676 6.58728,0 10.99063,4.626621 10.99063,11.346977 0,8.126529 -5.72228,11.756556 -11.3041,11.756556 h -0.0458 z m 0.17892,-4.036649 c 3.182,0 5.39994,-3.090329 5.39994,-7.579438 0,-3.449635 -1.54221,-7.450797 -5.35263,-7.450797 -3.95384,0 -5.54041,3.857736 -5.54041,7.536557 0,4.271751 2.13662,7.493678 5.44726,7.493678 h 0.0458 z"
   id="path37"
   inkscape:connector-curvature="0"
   style="fill:#ffffff" />
<path
   d="m 238.15493,70.752261 c 1.22578,0.7748 3.63299,1.636839 5.62913,1.636839 2.44861,0 3.53835,-1.042432 3.53835,-2.500357 0,-1.497848 -0.90787,-2.217939 -3.6315,-3.224884 -4.3102,-1.447575 -6.08307,-3.807462 -6.08307,-6.440895 0,-3.905052 3.22193,-6.89927 8.35572,-6.89927 2.44712,0 4.58078,0.585536 5.89824,1.317456 l -1.13115,3.902094 c -0.90788,-0.547091 -2.72807,-1.268661 -4.67985,-1.268661 -1.99911,0 -3.08738,0.996594 -3.08738,2.358409 0,1.404695 1.04835,2.039025 3.86365,3.084414 4.03961,1.409131 5.85536,3.454071 5.89529,6.720356 0,4.041085 -3.12878,6.946586 -8.98561,6.946586 -2.67927,0 -5.08648,-0.638767 -6.7174,-1.53925 l 1.13558,-4.092837 z"
   id="path39"
   inkscape:connector-curvature="0"
   style="fill:#ffffff" />
<path
   d="m 255.58202,61.178156 c 0,-2.908457 -0.0858,-5.266866 -0.17891,-7.359122 h 4.90164 l 0.27355,3.408233 h 0.0946 c 1.62945,-2.501835 4.21556,-3.903573 7.57944,-3.903573 5.08351,0 9.30499,4.35899 9.30499,11.256781 0,7.987538 -5.03916,11.846753 -10.07831,11.846753 -2.77095,0 -5.08352,-1.174029 -6.22058,-2.949859 h -0.0872 v 11.44013 h -5.58921 V 61.178156 z m 5.58921,5.485703 c 0,0.551528 0.0399,1.046868 0.13455,1.546643 0.58849,2.274127 2.54028,3.905052 4.94896,3.905052 3.54279,0 5.62618,-2.948381 5.62618,-7.305892 0,-3.90653 -1.903,-7.085576 -5.49458,-7.085576 -2.31109,0 -4.44475,1.682676 -5.03472,4.129802 -0.0932,0.453939 -0.18039,0.955193 -0.18039,1.407652 v 3.402319 z"
   id="path41"
   inkscape:connector-curvature="0"
   style="fill:#ffffff" />
<path
   d="m 283.18649,50.642945 c -1.85863,0 -3.08885,-1.364772 -3.08885,-2.995697 0,-1.724078 1.27162,-3.041534 3.13765,-3.041534 1.90151,0 3.08589,1.317456 3.12285,3.041534 0,1.630925 -1.22134,2.995697 -3.12285,2.995697 h -0.0488 z m -2.76947,3.177568 h 5.58182 v 22.112854 h -5.58182 V 53.820513 z"
   id="path43"
   inkscape:connector-curvature="0"
   style="fill:#ffffff" />
<path
   d="m 296.7174,48.148503 v 5.67201 h 5.30827 v 4.17564 h -5.30827 v 9.714574 c 0,2.726586 0.72009,4.092837 2.8567,4.092837 1.00103,0 1.54369,-0.04732 2.17654,-0.227709 l 0.0961,4.215563 c -0.8162,0.322341 -2.31405,0.59293 -4.0396,0.59293 -2.09522,0 -3.7705,-0.67869 -4.81441,-1.815753 -1.22874,-1.268662 -1.76992,-3.316559 -1.76992,-6.219102 v -10.35334 h -3.13764 v -4.17564 h 3.13764 V 49.69071 l 5.49458,-1.542207 z"
   id="path45"
   inkscape:connector-curvature="0"
   style="fill:#ffffff" />
<path
   d="m 321.91762,70.617706 c 0,1.999102 0.0843,3.950889 0.35931,5.315661 h -5.04064 l -0.4081,-2.455998 h -0.13455 c -1.31598,1.725556 -3.63742,2.949859 -6.53701,2.949859 -4.45362,0 -6.94658,-3.223405 -6.94658,-6.579887 0,-5.543369 4.94748,-8.403032 13.11393,-8.355716 v -0.359306 c 0,-1.456447 -0.58406,-3.859214 -4.49206,-3.859214 -2.17506,0 -4.44919,0.675732 -5.95,1.630924 l -1.08531,-3.628548 c 1.63684,-1.003988 4.4965,-1.951787 7.99346,-1.951787 7.07966,0 9.12755,4.492066 9.12755,9.353789 v 7.940223 z m -5.45021,-5.496054 c -3.95089,-0.03844 -7.72287,0.7748 -7.72287,4.131282 0,2.179495 1.41209,3.182003 3.18644,3.182003 2.26082,0 3.85478,-1.456447 4.393,-3.040055 0.14343,-0.408101 0.14343,-0.820638 0.14343,-1.230217 v -3.043013 z"
   id="path47"
   inkscape:connector-curvature="0"
   style="fill:#ffffff" />
<rect
   x="325.62897"
   y="43.647568"
   width="5.592164"
   height="32.285801"
   id="rect49"
   style="fill:#ffffff" />
<polygon
   points="236.161,39.18 236.161,35.713 234.976,35.713 234.976,35.286 237.859,35.286 237.859,35.713 236.67,35.713 236.67,39.18 "
   id="polygon51"
   style="fill:#ffffff"
   transform="matrix(1.4786261,0,0,1.4786261,-12.013828,-8.3793751)" />
<path
   d="m 345.12466,47.024747 c -0.0429,-0.792544 -0.0872,-1.778788 -0.0872,-2.487049 h -0.0222 c -0.19961,0.663903 -0.43176,1.39878 -0.72157,2.186888 l -1.01877,2.794603 h -0.56336 l -0.94188,-2.745809 c -0.27355,-0.80733 -0.49534,-1.551079 -0.66095,-2.235682 h -0.0133 c -0.0192,0.720091 -0.0651,1.682676 -0.1109,2.544715 l -0.15378,2.470784 h -0.70974 l 0.39923,-5.75777 h 0.95076 l 0.97737,2.778339 c 0.24249,0.714176 0.43028,1.351464 0.58553,1.953265 h 0.0163 c 0.14934,-0.5811 0.36078,-1.224303 0.61511,-1.953265 l 1.02912,-2.778339 h 0.95076 l 0.35487,5.75777 h -0.73044 l -0.14491,-2.52845 z"
   id="path53"
   inkscape:connector-curvature="0"
   style="fill:#ffffff" />
<polygon
   points="62.101,74.359 56.86,74.359 56.86,79.821 54.598,79.821 54.598,67.422 56.86,67.422 56.86,72.388 62.101,72.388 62.101,67.422 64.367,67.422 64.367,79.821 62.101,79.821 "
   id="polygon55"
   style="fill:#ffffff"
   transform="matrix(1.4786261,0,0,1.4786261,-12.013828,-8.3793751)" />
<path
   d="m 88.550493,103.96072 c 0.07985,2.39242 1.956223,3.43337 4.07953,3.43337 1.5496,0 2.634912,-0.25284 3.674386,-0.60327 l 0.492383,2.28891 c -1.144457,0.48942 -2.72363,0.8369 -4.625143,0.8369 -4.299845,0 -6.829774,-2.63491 -6.829774,-6.6893 0,-3.674389 2.229768,-7.126981 6.473425,-7.126981 4.301323,0 5.711933,3.536873 5.711933,6.451241 0,0.62103 -0.04584,1.11045 -0.10794,1.40913 h -8.8688 z m 5.821352,-2.33918 c 0.03253,-1.21987 -0.516041,-3.236714 -2.744331,-3.236714 -2.06564,0 -2.939508,1.876374 -3.077021,3.236714 h 5.821352 z"
   id="path57"
   inkscape:connector-curvature="0"
   style="fill:#ffffff" />
<path
   d="m 109.85897,106.46552 c 0,1.19177 0.0473,2.36432 0.21588,3.182 h -3.02083 l -0.24989,-1.4668 h -0.0799 c -0.78663,1.03061 -2.17506,1.76696 -3.91392,1.76696 -2.66448,0 -4.166768,-1.93404 -4.166768,-3.94202 0,-3.32247 2.969078,-5.03028 7.863328,-5.0081 v -0.2144 c 0,-0.87387 -0.35191,-2.318488 -2.68666,-2.318488 -1.3071,0 -2.6704,0.408101 -3.56645,0.980329 l -0.655022,-2.175059 c 0.981812,-0.600322 2.691102,-1.169593 4.792222,-1.169593 4.23923,0 5.46796,2.697014 5.46796,5.603991 v 4.76118 z m -3.2648,-3.29438 c -2.36876,-0.0251 -4.6281,0.46724 -4.6281,2.4767 0,1.30415 0.84429,1.90299 1.90003,1.90299 1.36034,0 2.31997,-0.87091 2.64083,-1.82167 0.0872,-0.24841 0.0872,-0.48942 0.0872,-0.73783 v -1.82019 z"
   id="path59"
   inkscape:connector-curvature="0"
   style="fill:#ffffff" />
<rect
   x="112.74673"
   y="90.310059"
   width="3.3446524"
   height="19.337473"
   id="rect61"
   style="fill:#ffffff" />
<path
   d="m 122.92116,92.998191 v 3.397883 h 3.18496 v 2.50775 h -3.18496 v 5.825786 c 0,1.62353 0.43176,2.44121 1.70929,2.44121 0.60032,0 0.93153,-0.0296 1.31006,-0.13455 l 0.0532,2.53288 c -0.48647,0.19075 -1.38843,0.34748 -2.42199,0.34748 -1.24796,0 -2.25194,-0.40366 -2.88627,-1.08679 -0.73045,-0.76001 -1.05574,-1.98727 -1.05574,-3.72466 v -6.201356 h -1.87342 v -2.50775 h 1.87342 v -2.476699 l 3.29142,-0.921184 z"
   id="path63"
   inkscape:connector-curvature="0"
   style="fill:#ffffff" />
<path
   d="m 127.95884,90.30857 h 3.34761 v 7.886992 h 0.0488 c 0.40662,-0.629895 0.9818,-1.142978 1.66493,-1.502284 0.67869,-0.375571 1.46384,-0.594408 2.30518,-0.594408 2.26082,0 4.6281,1.49637 4.6281,5.73855 v 7.80862 h -3.35057 v -7.45375 c 0,-1.90004 -0.70235,-3.374227 -2.55359,-3.374227 -1.30858,0 -2.22681,0.873869 -2.61125,1.877857 -0.10794,0.30312 -0.1316,0.65355 -0.1316,1.00694 v 7.94318 h -3.3476 V 90.30857 z"
   id="path65"
   inkscape:connector-curvature="0"
   style="fill:#ffffff" />
<path
   d="M 147.93064,109.64604 V 91.312557 h 3.83999 l 4.73013,7.858898 c 1.19473,2.041985 2.28743,4.166765 3.13321,6.152565 l 0.0503,-0.0325 c -0.24841,-2.42199 -0.2972,-4.78779 -0.2972,-7.583875 v -6.395058 h 3.09772 v 18.333483 h -3.48069 l -4.79666,-8.07625 c -1.16072,-2.022764 -2.36285,-4.24366 -3.25741,-6.315216 l -0.10794,0.02366 c 0.13751,2.371717 0.19222,4.793706 0.19222,7.807146 v 6.56066 h -3.10364 z"
   id="path67"
   inkscape:connector-curvature="0"
   style="fill:#ffffff" />
<path
   d="m 167.92906,103.96072 c 0.0798,2.39242 1.96362,3.43337 4.07953,3.43337 1.55404,0 2.64231,-0.25284 3.67439,-0.60327 l 0.4909,2.28891 c -1.1415,0.48942 -2.72067,0.8369 -4.62071,0.8369 -4.30132,0 -6.83273,-2.63491 -6.83273,-6.6893 0,-3.674389 2.23125,-7.126981 6.47491,-7.126981 4.3028,0 5.71637,3.536873 5.71637,6.451241 0,0.62103 -0.0577,1.11045 -0.1109,1.40913 h -8.87176 z m 5.82283,-2.33918 c 0.0251,-1.21987 -0.51456,-3.236714 -2.74876,-3.236714 -2.06417,0 -2.93656,1.876374 -3.07407,3.236714 h 5.82283 z"
   id="path69"
   inkscape:connector-curvature="0"
   style="fill:#ffffff" />
<path
   d="m 182.7863,92.998191 v 3.397883 h 3.182 v 2.50775 h -3.182 v 5.825786 c 0,1.62353 0.43915,2.44121 1.71816,2.44121 0.59589,0 0.92414,-0.0296 1.30563,-0.13455 l 0.0488,2.53288 c -0.48794,0.19075 -1.38695,0.34748 -2.41755,0.34748 -1.2524,0 -2.25934,-0.40366 -2.88184,-1.08679 -0.74227,-0.76001 -1.06018,-1.98727 -1.06018,-3.72466 v -6.201356 h -1.8749 v -2.50775 h 1.8749 v -2.476699 l 3.28699,-0.921184 z"
   id="path71"
   inkscape:connector-curvature="0"
   style="fill:#ffffff" />
<path
   d="m 190.0848,96.394595 1.36033,6.015055 c 0.3253,1.41652 0.62398,2.85522 0.87239,4.30132 h 0.0473 c 0.27502,-1.41948 0.7053,-2.91585 1.06165,-4.27323 l 1.7433,-6.043145 h 2.71476 l 1.66493,5.883455 c 0.40662,1.54812 0.76149,2.98682 1.06018,4.43292 h 0.0532 c 0.19074,-1.4461 0.51456,-2.8848 0.87682,-4.43292 l 1.46236,-5.883455 h 3.29586 l -4.16381,13.251445 h -3.0992 l -1.58213,-5.38811 c -0.40514,-1.38843 -0.7053,-2.63787 -1.00547,-4.2407 h -0.0532 c -0.30016,1.6324 -0.62546,2.93803 -1.00694,4.2407 l -1.68416,5.38811 h -3.13025 l -3.91836,-13.251445 h 3.43042 z"
   id="path73"
   inkscape:connector-curvature="0"
   style="fill:#ffffff" />
<path
   d="m 213.29035,109.94768 c -3.72318,0 -6.63459,-2.55359 -6.63459,-6.83273 0,-4.351596 2.85523,-7.01608 6.85639,-7.01608 3.94645,0 6.5858,2.772424 6.5858,6.79724 0,4.87356 -3.43041,7.05157 -6.7795,7.05157 h -0.0281 z m 0.11534,-2.42199 c 1.90151,0 3.23523,-1.85124 3.23523,-4.54382 0,-2.06712 -0.9271,-4.459532 -3.20862,-4.459532 -2.37171,0 -3.32099,2.312572 -3.32099,4.517202 0,2.55211 1.27753,4.48615 3.26333,4.48615 h 0.031 z"
   id="path75"
   inkscape:connector-curvature="0"
   style="fill:#ffffff" />
<path
   d="m 222.19612,100.67374 c 0,-1.802446 -0.031,-3.108073 -0.10942,-4.279145 h 2.88332 l 0.13751,2.509229 h 0.0784 c 0.65503,-1.85124 2.20611,-2.804954 3.64925,-2.804954 0.32086,0 0.51752,0.02957 0.78959,0.07985 v 3.128773 c -0.3046,-0.05471 -0.59885,-0.08133 -1.00547,-0.08133 -1.57769,0 -2.69997,1.005467 -2.99865,2.535847 -0.0517,0.30016 -0.0798,0.64911 -0.0798,1.00398 v 6.88005 h -3.34465 v -8.9723 z"
   id="path77"
   inkscape:connector-curvature="0"
   style="fill:#ffffff" />
<path
   d="m 234.68607,102.2189 h 0.0547 c 0.32826,-0.51604 0.71122,-1.08974 1.03504,-1.54516 l 3.23672,-4.277666 h 4.02186 l -4.91791,5.413246 5.59808,7.83672 h -4.10467 l -3.80894,-5.85092 -1.11489,1.33963 v 4.51129 h -3.35055 V 90.30857 h 3.35056 v 11.91033 z"
   id="path79"
   inkscape:connector-curvature="0"
   style="fill:#ffffff" />
</svg>