<?xml version="1.0" encoding="UTF-8" standalone="no"?>
<!-- Generator: Adobe Illustrator 17.0.0, SVG Export Plug-In . SVG Version: 6.00 Build 0)  -->

<svg
   xmlns:dc="http://purl.org/dc/elements/1.1/"
   xmlns:cc="http://creativecommons.org/ns#"
   xmlns:rdf="http://www.w3.org/1999/02/22-rdf-syntax-ns#"
   xmlns:svg="http://www.w3.org/2000/svg"
   xmlns="http://www.w3.org/2000/svg"
   xmlns:sodipodi="http://sodipodi.sourceforge.net/DTD/sodipodi-0.dtd"
   xmlns:inkscape="http://www.inkscape.org/namespaces/inkscape"
   version="1.1"
   id="Layer_1"
   x="0px"
   y="0px"
   width="235.00095"
   height="74.675766"
   viewBox="0 0 235.00094 74.675765"
   enable-background="new 0 0 249.474 90.526"
   xml:space="preserve"
   inkscape:version="0.48.2 r9819"
   sodipodi:docname="tchhn-logo-white.svg"><metadata
   id="metadata85"><rdf:RDF><cc:Work
       rdf:about=""><dc:format>image/svg+xml</dc:format><dc:type
         rdf:resource="http://purl.org/dc/dcmitype/StillImage" /></cc:Work></rdf:RDF></metadata><defs
   id="defs83" /><sodipodi:namedview
   pagecolor="#ffffff"
   bordercolor="#666666"
   borderopacity="1"
   objecttolerance="10"
   gridtolerance="10"
   guidetolerance="10"
   inkscape:pageopacity="0"
   inkscape:pageshadow="2"
   inkscape:window-width="736"
   inkscape:window-height="480"
   id="namedview81"
   showgrid="false"
   fit-margin-top="0"
   fit-margin-left="0"
   fit-margin-right="0"
   fit-margin-bottom="0"
   inkscape:zoom="1.2907157"
   inkscape:cx="114.0463"
   inkscape:cy="34.920881"
   inkscape:window-x="0"
   inkscape:window-y="0"
   inkscape:window-maximized="0"
   inkscape:current-layer="Layer_1" />
<polygon
   points="52.768,21.724 60.465,21.724 60.465,23.277 57.527,23.277 57.527,31.91 55.668,31.91 55.668,23.277 52.768,23.277 "
   id="polygon3"
   style="fill:#ffffff"
   transform="matrix(1.0042735,0,0,1.0042735,-8.159722,-5.6912178)" />
<path
   d="m 53.506687,15.56423 h 1.86594 v 4.400726 h 0.03013 c 0.226966,-0.347479 0.549337,-0.638718 0.927949,-0.834551 0.377606,-0.21391 0.821495,-0.334423 1.287478,-0.334423 1.262372,0 2.582992,0.834551 2.582992,3.200619 v 4.357543 h -1.868955 v -4.156688 c 0,-1.06453 -0.391667,-1.885021 -1.426069,-1.885021 -0.728098,0 -1.244295,0.485064 -1.458205,1.047457 -0.05825,0.169722 -0.07532,0.36656 -0.07532,0.562393 v 4.431859 h -1.86594 V 15.56423 z"
   id="path5"
   inkscape:connector-curvature="0"
   style="fill:#ffffff" />
<path
   d="m 63.482135,23.185661 c 0.05021,1.332671 1.096667,1.912137 2.277692,1.912137 0.865684,0 1.472265,-0.139594 2.052735,-0.334423 l 0.272158,1.276431 c -0.638718,0.27015 -1.517457,0.466988 -2.582991,0.466988 -2.399209,0 -3.807201,-1.472265 -3.807201,-3.732885 0,-2.051731 1.244295,-3.977927 3.611368,-3.977927 2.399209,0 3.188568,1.972393 3.188568,3.60032 0,0.34547 -0.03214,0.617628 -0.06227,0.789359 H 63.48213 z m 3.251838,-1.308568 c 0.01205,-0.681902 -0.29124,-1.805684 -1.53453,-1.805684 -1.155919,0 -1.640983,1.048462 -1.717308,1.805684 h 3.251838 z"
   id="path7"
   inkscape:connector-curvature="0"
   style="fill:#ffffff" />
<polygon
   points="42.289,67.333 42.289,58.489 8.125,58.489 8.125,79.72 33.245,60.061 "
   id="polygon9"
   style="fill:#ffffff"
   transform="matrix(1.0042735,0,0,1.0042735,-8.159722,-5.6912178)" />
<path
   d="m 29.136986,24.345597 c -0.157671,-0.358526 -0.392671,-0.769273 -0.527243,-0.902842 -0.302287,-0.314337 -0.707009,-0.556367 -1.16094,-0.735128 0.03515,-0.15265 0.06327,-0.651774 -0.03013,-0.722073 -0.594529,-0.378611 -1.314594,-0.522222 -1.462222,-0.915897 -0.144615,-0.403718 -0.04318,-0.727094 -0.04318,-0.727094 0.258099,-0.135577 0.438868,-0.39468 0.438868,-0.702992 0,-0.336431 -0.212906,-0.628675 -0.513184,-0.7522 l -0.330406,-6.971667 -0.0934,-0.09641 -0.08536,0.09641 -0.338441,6.971667 c -0.297265,0.123525 -0.504145,0.415769 -0.504145,0.7522 0,0.308312 0.176752,0.567415 0.436859,0.702992 0,0 0.0472,0.401709 -0.0482,0.727094 -0.08536,0.31735 -0.866688,0.537286 -1.461218,0.915897 -0.09641,0.0703 -0.06427,0.569423 -0.03515,0.722073 -0.445897,0.178761 -0.851623,0.420791 -1.157927,0.735128 -0.133568,0.133569 -0.360534,0.544316 -0.526239,0.902842 -1.103697,2.363056 -3.708782,6.862201 -5.533547,6.862201 h -2.431346 v 1.894059 h 1.995491 v 1.389915 0.001 h 0.004 c 0.03214,0.01004 0.525235,0.07633 0.679894,0.557372 0.05825,0.189808 0.07432,0.438868 0.07432,0.60156 v 0.125534 0.03415 5.685192 h -0.750193 v 1.939253 h -2.748696 v 1.228226 c 0,0 1.074573,0.125534 1.397949,1.142863 0.19282,0.610599 0.161688,1.547586 0.161688,1.547586 v 4.210918 H 0 v 1.482308 H 34.309999 V 31.02502 c -3.060021,-1.553611 -4.106474,-4.405748 -5.173013,-6.679423"
   id="path11"
   inkscape:connector-curvature="0"
   style="fill:none" />
<path
   d="M 0,-1.5794405e-8 V 51.565425 h 14.543888 v -4.210918 c 0,0 0.03214,-0.936987 -0.161688,-1.547586 -0.322371,-1.016325 -1.396944,-1.141859 -1.396944,-1.141859 v -1.22923 h 2.748696 v -1.939253 h 0.750193 v -5.685192 -0.03415 -0.125534 c 0,-0.162692 -0.01707,-0.411752 -0.07432,-0.60156 -0.154659,-0.481047 -0.648761,-0.547329 -0.679894,-0.556367 h -0.004 v -0.002 -1.389915 H 13.73044 v -1.894059 h 2.431346 c 1.824765,0 4.42985,-4.499145 5.533547,-6.862201 0.165705,-0.358526 0.392671,-0.768269 0.526239,-0.902842 0.306304,-0.314337 0.71203,-0.556367 1.156923,-0.735128 -0.02812,-0.15265 -0.06026,-0.651774 0.03515,-0.721068 0.59453,-0.378611 1.376859,-0.599552 1.462222,-0.916902 0.0944,-0.325385 0.0472,-0.727094 0.0472,-0.727094 -0.259103,-0.135577 -0.435855,-0.39468 -0.435855,-0.701987 0,-0.336432 0.20688,-0.628675 0.504145,-0.752201 l 0.338441,-6.972671 0.08536,-0.09541 0.09239,0.09541 0.33141,6.972671 c 0.299274,0.123526 0.51218,0.415769 0.51218,0.752201 0,0.307307 -0.179765,0.56641 -0.437864,0.701987 0,0 -0.101431,0.323376 0.04318,0.727094 0.147628,0.393675 0.867693,0.538291 1.462222,0.916902 0.0934,0.06929 0.06528,0.568418 0.03013,0.721068 0.453931,0.178761 0.858653,0.420791 1.159935,0.735128 0.135577,0.134573 0.369573,0.544316 0.528248,0.902842 1.065534,2.273675 2.112992,5.125812 5.173013,6.680427 V -1.5794405e-8 H 0 z"
   id="path13"
   inkscape:connector-curvature="0"
   style="fill:#ffffff" />
<path
   d="m 20.800512,41.362007 v 0.135577 h 3.450684 v -4.662842 c -1.874979,0.480043 -3.450684,1.989466 -3.450684,4.527265"
   id="path15"
   inkscape:connector-curvature="0"
   style="fill:#ffffff" />
<path
   d="m 26.212542,36.834742 v 4.662842 h 3.452692 v -0.135577 c 0,-2.538804 -1.576709,-4.047222 -3.452692,-4.527265"
   id="path17"
   inkscape:connector-curvature="0"
   style="fill:#ffffff" />
<rect
   x="20.800512"
   y="43.435833"
   width="3.4506838"
   height="8.1356192"
   id="rect19"
   style="fill:#ffffff" />
<rect
   x="26.212545"
   y="43.435833"
   width="3.4526923"
   height="8.1356192"
   id="rect21"
   style="fill:#ffffff" />
<path
   d="m 60.651088,50.955831 c -0.892799,0.430834 -2.868205,0.922928 -5.39797,0.922928 -6.596068,0 -10.606132,-4.130577 -10.606132,-10.454487 0,-6.842115 4.78235,-10.942564 11.133376,-10.942564 2.499636,0 4.256111,0.489081 5.023376,0.895812 l -0.800406,3.017842 c -0.984188,-0.431838 -2.375107,-0.799402 -4.069316,-0.799402 -4.225983,0 -7.276966,2.651282 -7.276966,7.646538 0,4.564423 2.651282,7.459744 7.246837,7.459744 1.508419,0 3.115257,-0.309317 4.132586,-0.739146 l 0.614615,2.992735 z"
   id="path23"
   inkscape:connector-curvature="0"
   style="fill:#ffffff" />
<path
   d="m 63.023182,29.645148 h 3.796154 v 8.947073 h 0.05925 c 0.460961,-0.71203 1.111731,-1.298526 1.881004,-1.698227 0.769274,-0.432842 1.663077,-0.67688 2.622158,-0.67688 2.55688,0 5.239295,1.692201 5.239295,6.507692 v 8.848654 h -3.790128 v -8.449957 c 0,-2.158184 -0.804423,-3.82327 -2.898333,-3.82327 -1.479295,0 -2.528761,0.985193 -2.957586,2.124039 -0.127543,0.340448 -0.155662,0.740149 -0.155662,1.145876 V 51.57346 H 63.023182 V 29.645148 z"
   id="path25"
   inkscape:connector-curvature="0"
   style="fill:#ffffff" />
<path
   d="m 79.95222,41.397156 c 0,-2.03767 -0.02812,-3.516965 -0.12453,-4.842606 h 3.26891 l 0.154658,2.836068 h 0.0944 c 0.737137,-2.096923 2.496624,-3.173504 4.130577,-3.173504 0.369573,0 0.584487,0.03113 0.890791,0.09038 v 3.54609 c -0.334424,-0.06126 -0.674872,-0.09139 -1.137842,-0.09139 -1.788611,0 -3.051987,1.140855 -3.391432,2.865192 -0.06026,0.339445 -0.09139,0.74015 -0.09139,1.142864 v 7.803205 H 79.95222 V 41.397156 z"
   id="path27"
   inkscape:connector-curvature="0"
   style="fill:#ffffff" />
<path
   d="m 92.098908,34.396366 c -1.260363,0 -2.095919,-0.926944 -2.095919,-2.034658 0,-1.170983 0.862671,-2.065791 2.128056,-2.065791 1.295512,0 2.098931,0.894808 2.127051,2.065791 0,1.107714 -0.831539,2.034658 -2.127051,2.034658 h -0.03214 z m -1.877992,2.158184 h 3.792137 V 51.57346 H 90.220916 V 36.55455 z"
   id="path29"
   inkscape:connector-curvature="0"
   style="fill:#ffffff" />
<path
   d="m 97.249826,48.054485 c 0.833547,0.52624 2.465492,1.111731 3.822264,1.111731 1.6671,0 2.40725,-0.708013 2.40725,-1.698226 0,-1.017329 -0.61763,-1.506411 -2.4665,-2.190321 -2.929467,-0.983184 -4.131582,-2.586004 -4.131582,-4.374615 0,-2.652286 2.188312,-4.68594 5.671132,-4.68594 1.66509,0 3.11425,0.397692 4.00806,0.894807 l -0.77129,2.650278 c -0.61561,-0.371581 -1.84685,-0.861666 -3.1735,-0.861666 -1.35677,0 -2.09692,0.67688 -2.09692,1.601816 0,0.95406 0.70901,1.384893 2.61914,2.094914 2.7487,0.957073 3.97793,2.345983 4.00906,4.564423 0,2.74468 -2.12805,4.718077 -6.10598,4.718077 -1.816732,0 -3.451689,-0.433846 -4.56342,-1.045449 l 0.772286,-2.779829 z"
   id="path31"
   inkscape:connector-curvature="0"
   style="fill:#ffffff" />
<path
   d="m 113.89867,32.702157 v 3.852393 h 3.61037 v 2.836068 h -3.61037 v 6.598077 c 0,1.85188 0.49511,2.779829 1.94428,2.779829 0.67587,0 1.04745,-0.03214 1.47929,-0.154658 l 0.0623,2.863183 c -0.55738,0.218932 -1.5737,0.402714 -2.74569,0.402714 -1.41703,0 -2.55889,-0.460962 -3.26991,-1.233248 -0.83054,-0.861667 -1.1991,-2.252585 -1.1991,-4.223974 v -7.031923 h -2.12806 V 36.55455 h 2.12806 v -2.804936 l 3.72886,-1.047457 z"
   id="path33"
   inkscape:connector-curvature="0"
   style="fill:#ffffff" />
<polygon
   points="133.88,57.02 133.88,36.327 137.655,36.327 137.655,44.613 146.408,44.613 146.408,36.327 150.184,36.327 150.184,57.02 146.408,57.02 146.408,47.902 137.655,47.902 137.655,57.02 "
   id="polygon35"
   style="fill:#ffffff"
   transform="matrix(1.0042735,0,0,1.0042735,-8.159722,-5.6912178)" />
<path
   d="m 152.25589,51.907883 c -4.22397,0 -7.52502,-2.896325 -7.52502,-7.735919 0,-4.938013 3.23678,-7.955854 7.76906,-7.955854 4.47404,0 7.46477,3.142371 7.46477,7.706794 0,5.519487 -3.88654,7.984979 -7.67767,7.984979 h -0.0311 z m 0.12152,-2.741667 c 2.1612,0 3.66761,-2.098932 3.66761,-5.147906 0,-2.34297 -1.04746,-5.060534 -3.63547,-5.060534 -2.68543,0 -3.76301,2.62015 -3.76301,5.118782 0,2.901346 1.45117,5.089658 3.69974,5.089658 h 0.0311 z"
   id="path37"
   inkscape:connector-curvature="0"
   style="fill:#ffffff" />
<path
   d="m 161.75331,48.054485 c 0.83254,0.52624 2.4675,1.111731 3.82327,1.111731 1.66307,0 2.40322,-0.708013 2.40322,-1.698226 0,-1.017329 -0.61662,-1.506411 -2.46649,-2.190321 -2.92746,-0.983184 -4.13158,-2.586004 -4.13158,-4.374615 0,-2.652286 2.18831,-4.68594 5.67515,-4.68594 1.66207,0 3.11124,0.397692 4.00604,0.894807 l -0.76827,2.650278 c -0.61662,-0.371581 -1.85288,-0.861666 -3.17852,-0.861666 -1.35778,0 -2.09692,0.67688 -2.09692,1.601816 0,0.95406 0.71203,1.384893 2.62416,2.094914 2.74368,0.957073 3.97693,2.345983 4.00404,4.564423 0,2.74468 -2.12504,4.718077 -6.10297,4.718077 -1.81974,0 -3.4547,-0.433846 -4.56241,-1.045449 l 0.77128,-2.779829 z"
   id="path39"
   inkscape:connector-curvature="0"
   style="fill:#ffffff" />
<path
   d="m 173.58968,41.551815 c 0,-1.975406 -0.0582,-3.577223 -0.12152,-4.99827 h 3.32917 l 0.18579,2.314851 h 0.0643 c 1.10671,-1.699231 2.86318,-2.651282 5.14791,-2.651282 3.45269,0 6.31989,2.960598 6.31989,7.645534 0,5.425085 -3.42257,8.046239 -6.84513,8.046239 -1.88201,0 -3.45269,-0.797393 -4.22498,-2.003526 h -0.0592 v 7.770064 h -3.79615 v -16.12361 z m 3.79615,3.725854 c 0,0.374594 0.0271,0.711026 0.0914,1.05047 0.3997,1.544573 1.72534,2.652286 3.3613,2.652286 2.40624,0 3.82126,-2.002521 3.82126,-4.962115 0,-2.65329 -1.2925,-4.812478 -3.73188,-4.812478 -1.56968,0 -3.01884,1.142863 -3.41955,2.804935 -0.0633,0.308312 -0.12252,0.648761 -0.12252,0.956069 v 2.310833 z"
   id="path41"
   inkscape:connector-curvature="0"
   style="fill:#ffffff" />
<path
   d="m 192.33846,34.396366 c -1.26237,0 -2.09793,-0.926944 -2.09793,-2.034658 0,-1.170983 0.86368,-2.065791 2.13107,-2.065791 1.29149,0 2.09592,0.894808 2.12102,2.065791 0,1.107714 -0.82953,2.034658 -2.12102,2.034658 h -0.0331 z m -1.88101,2.158184 h 3.79114 v 15.01891 h -3.79114 V 36.55455 z"
   id="path43"
   inkscape:connector-curvature="0"
   style="fill:#ffffff" />
<path
   d="m 201.52856,32.702157 v 3.852393 h 3.60535 v 2.836068 h -3.60535 v 6.598077 c 0,1.85188 0.48909,2.779829 1.94026,2.779829 0.67989,0 1.04846,-0.03214 1.47829,-0.154658 l 0.0653,2.863183 c -0.55436,0.218932 -1.57169,0.402714 -2.74368,0.402714 -1.42305,0 -2.56089,-0.460962 -3.26991,-1.233248 -0.83455,-0.861667 -1.20212,-2.252585 -1.20212,-4.223974 v -7.031923 h -2.13106 V 36.55455 h 2.13106 v -2.804936 l 3.73188,-1.047457 z"
   id="path45"
   inkscape:connector-curvature="0"
   style="fill:#ffffff" />
<path
   d="m 218.6444,47.963096 c 0,1.357778 0.0572,2.683419 0.24404,3.610364 h -3.42357 l -0.27718,-1.668099 h -0.0914 c -0.8938,1.171987 -2.47051,2.003526 -4.43989,2.003526 -3.02488,0 -4.71808,-2.189316 -4.71808,-4.469017 0,-3.765021 3.3603,-5.707286 8.9069,-5.67515 v -0.244038 c 0,-0.989209 -0.39669,-2.621154 -3.05098,-2.621154 -1.47729,0 -3.02186,0.458953 -4.0412,1.107714 l -0.73714,-2.464487 c 1.11174,-0.681902 3.054,-1.325641 5.42911,-1.325641 4.80846,0 6.19938,3.050983 6.19938,6.353034 v 5.392948 z m -3.70176,-3.732884 c -2.68341,-0.02611 -5.24532,0.526239 -5.24532,2.80594 0,1.480299 0.95909,2.161197 2.16421,2.161197 1.53554,0 2.61814,-0.98921 2.9837,-2.064787 0.0974,-0.277179 0.0974,-0.557372 0.0974,-0.835555 v -2.066795 z"
   id="path47"
   inkscape:connector-curvature="0"
   style="fill:#ffffff" />
<rect
   x="221.16512"
   y="29.645151"
   width="3.7981625"
   height="21.92831"
   id="rect49"
   style="fill:#ffffff" />
<polygon
   points="234.976,35.286 237.859,35.286 237.859,35.713 236.67,35.713 236.67,39.18 236.161,39.18 236.161,35.713 234.976,35.713 "
   id="polygon51"
   style="fill:#ffffff"
   transform="matrix(1.0042735,0,0,1.0042735,-8.159722,-5.6912178)" />
<path
   d="m 234.40647,31.938909 c -0.0291,-0.538291 -0.0593,-1.208141 -0.0593,-1.689188 h -0.0151 c -0.13557,0.450919 -0.29324,0.950042 -0.49008,1.48532 l -0.69195,1.898077 h -0.38263 l -0.63972,-1.864936 c -0.18579,-0.548333 -0.33643,-1.053483 -0.44891,-1.518461 h -0.009 c -0.013,0.489081 -0.0442,1.142863 -0.0753,1.728354 l -0.10444,1.678141 h -0.48205 l 0.27115,-3.91064 h 0.64575 l 0.66382,1.887029 c 0.16471,0.485064 0.29225,0.917906 0.3977,1.326646 h 0.011 c 0.10144,-0.39468 0.24505,-0.831539 0.41778,-1.326646 l 0.69898,-1.887029 h 0.64574 l 0.24103,3.91064 h -0.49611 l -0.0984,-1.717307 z"
   id="path53"
   inkscape:connector-curvature="0"
   style="fill:#ffffff" />
<polygon
   points="54.598,79.821 54.598,67.422 56.86,67.422 56.86,72.388 62.101,72.388 62.101,67.422 64.367,67.422 64.367,79.821 62.101,79.821 62.101,74.359 56.86,74.359 56.86,79.821 "
   id="polygon55"
   style="fill:#ffffff"
   transform="matrix(1.0042735,0,0,1.0042735,-8.159722,-5.6912178)" />
<path
   d="m 60.142926,70.609463 c 0.05423,1.624915 1.328654,2.331923 2.77079,2.331923 1.052479,0 1.789616,-0.17173 2.49562,-0.409743 l 0.334423,1.554615 c -0.777308,0.332415 -1.849872,0.568419 -3.141368,0.568419 -2.920427,0 -4.638739,-1.789615 -4.638739,-4.543333 0,-2.49562 1.514445,-4.840598 4.39671,-4.840598 2.921431,0 3.879508,2.402222 3.879508,4.381645 0,0.421795 -0.03113,0.754209 -0.07331,0.957072 h -6.023632 z m 3.953824,-1.58876 c 0.02209,-0.828526 -0.350491,-2.198355 -1.863931,-2.198355 -1.40297,0 -1.996496,1.274423 -2.089893,2.198355 h 3.953824 z"
   id="path57"
   inkscape:connector-curvature="0"
   style="fill:#ffffff" />
<path
   d="m 74.615511,72.310703 c 0,0.809444 0.03214,1.605833 0.146624,2.161196 H 72.710404 L 72.540682,73.47566 h -0.05423 c -0.534273,0.699978 -1.477286,1.200107 -2.658312,1.200107 -1.809701,0 -2.830043,-1.31359 -2.830043,-2.677393 0,-2.256603 2.016582,-3.416539 5.340727,-3.401475 V 68.45128 c 0,-0.593526 -0.239017,-1.574701 -1.824765,-1.574701 -0.887778,0 -1.813718,0.277179 -2.422308,0.665833 l -0.444894,-1.477286 c 0.666838,-0.407735 1.827778,-0.79438 3.25485,-0.79438 2.879253,0 3.713804,1.831794 3.713804,3.806196 v 3.233761 z m -2.217436,-2.237522 c -1.608846,-0.01707 -3.143376,0.317351 -3.143376,1.682158 0,0.88577 0.57344,1.2925 1.290491,1.2925 0.923932,0 1.575705,-0.591517 1.793633,-1.237265 0.05925,-0.168718 0.05925,-0.332414 0.05925,-0.501132 v -1.236261 z"
   id="path59"
   inkscape:connector-curvature="0"
   style="fill:#ffffff" />
<rect
   x="76.576859"
   y="61.338017"
   width="2.2716668"
   height="13.133888"
   id="rect61"
   style="fill:#ffffff" />
<path
   d="m 83.487263,63.16378 v 2.30782 h 2.163205 v 1.703248 h -2.163205 v 3.956838 c 0,1.102692 0.293248,1.658055 1.16094,1.658055 0.407735,0 0.632692,-0.02009 0.889786,-0.09139 l 0.03615,1.720321 c -0.330406,0.129551 -0.943013,0.236004 -1.645,0.236004 -0.847607,0 -1.529508,-0.274167 -1.960342,-0.738141 -0.496111,-0.516197 -0.717051,-1.349744 -0.717051,-2.529765 v -4.211923 h -1.272415 v -1.703248 h 1.272415 v -1.682158 l 2.235513,-0.625662 z"
   id="path63"
   inkscape:connector-curvature="0"
   style="fill:#ffffff" />
<path
   d="m 86.908822,61.337006 h 2.273676 v 5.356795 h 0.03314 c 0.276175,-0.42782 0.666837,-0.776303 1.130812,-1.020342 0.460961,-0.255085 0.99423,-0.403718 1.565662,-0.403718 1.535534,0 3.143376,1.016325 3.143376,3.897586 v 5.303568 h -2.275684 v -5.062543 c 0,-1.290491 -0.47703,-2.291752 -1.73438,-2.291752 -0.888782,0 -1.512436,0.593526 -1.773547,1.275427 -0.07331,0.205877 -0.08938,0.443889 -0.08938,0.683911 v 5.394957 H 86.908822 V 61.337006 z"
   id="path65"
   inkscape:connector-curvature="0"
   style="fill:#ffffff" />
<path
   d="M 100.47354,74.470895 V 62.018908 h 2.6081 l 3.21267,5.337714 c 0.81146,1.386901 1.55362,2.830042 2.12806,4.178781 l 0.0341,-0.02209 c -0.16872,-1.644999 -0.20186,-3.251837 -0.20186,-5.150918 v -4.343483 h 2.10395 v 12.451987 h -2.36406 l -3.25786,-5.485342 c -0.78836,-1.373846 -1.60483,-2.882265 -2.21242,-4.289252 l -0.0733,0.01607 c 0.0934,1.610855 0.13056,3.255855 0.13056,5.302564 v 4.455962 h -2.10798 z"
   id="path67"
   inkscape:connector-curvature="0"
   style="fill:#ffffff" />
<path
   d="m 114.05634,70.609463 c 0.0542,1.624915 1.33368,2.331923 2.77079,2.331923 1.0555,0 1.79464,-0.17173 2.49562,-0.409743 l 0.33342,1.554615 c -0.7753,0.332415 -1.84786,0.568419 -3.13835,0.568419 -2.92143,0 -4.64075,-1.789615 -4.64075,-4.543333 0,-2.49562 1.51545,-4.840598 4.39771,-4.840598 2.92244,0 3.88253,2.402222 3.88253,4.381645 0,0.421795 -0.0392,0.754209 -0.0753,0.957072 h -6.02564 z m 3.95483,-1.58876 c 0.0171,-0.828526 -0.34948,-2.198355 -1.86694,-2.198355 -1.40197,0 -1.99449,1.274423 -2.08789,2.198355 h 3.95483 z"
   id="path69"
   inkscape:connector-curvature="0"
   style="fill:#ffffff" />
<path
   d="m 124.14728,63.16378 v 2.30782 h 2.1612 v 1.703248 h -2.1612 v 3.956838 c 0,1.102692 0.29827,1.658055 1.16697,1.658055 0.40472,0 0.62767,-0.02009 0.88677,-0.09139 l 0.0331,1.720321 c -0.33141,0.129551 -0.942,0.236004 -1.64198,0.236004 -0.85062,0 -1.53453,-0.274167 -1.95733,-0.738141 -0.50415,-0.516197 -0.72007,-1.349744 -0.72007,-2.529765 v -4.211923 h -1.27341 v -1.703248 h 1.27341 v -1.682158 l 2.2325,-0.625662 z"
   id="path71"
   inkscape:connector-curvature="0"
   style="fill:#ffffff" />
<path
   d="m 129.10438,65.470596 0.92393,4.085384 c 0.22094,0.962094 0.4238,1.939253 0.59252,2.921432 h 0.0321 c 0.18679,-0.964103 0.47904,-1.980427 0.72107,-2.90235 l 1.18403,-4.104466 h 1.84385 l 1.13081,3.996004 c 0.27618,1.051474 0.5172,2.028633 0.72007,3.010812 h 0.0361 c 0.12955,-0.982179 0.34949,-1.959338 0.59553,-3.010812 l 0.99323,-3.996004 h 2.23853 l -2.82804,9.000299 h -2.10495 l -1.07458,-3.659573 c -0.27517,-0.943012 -0.47904,-1.791624 -0.6829,-2.880256 h -0.0362 c -0.20386,1.108718 -0.4248,1.995491 -0.68391,2.880256 l -1.14386,3.659573 h -2.12605 l -2.66133,-9.000299 h 2.32992 z"
   id="path73"
   inkscape:connector-curvature="0"
   style="fill:#ffffff" />
<path
   d="m 144.86545,74.675767 c -2.52876,0 -4.50618,-1.734381 -4.50618,-4.640748 0,-2.955577 1.93925,-4.765278 4.65682,-4.765278 2.6804,0 4.47303,1.883013 4.47303,4.616645 0,3.310086 -2.32991,4.789381 -4.60459,4.789381 h -0.0191 z m 0.0783,-1.645 c 1.29149,0 2.19735,-1.257351 2.19735,-3.086133 0,-1.403974 -0.62968,-3.028889 -2.17927,-3.028889 -1.61086,0 -2.2556,1.570684 -2.2556,3.068056 0,1.733376 0.86769,3.046966 2.21643,3.046966 h 0.0211 z"
   id="path75"
   inkscape:connector-curvature="0"
   style="fill:#ffffff" />
<path
   d="m 150.91419,68.376963 c 0,-1.224209 -0.0211,-2.110982 -0.0743,-2.906367 h 1.95833 l 0.0934,1.704252 h 0.0532 c 0.44489,-1.25735 1.49837,-1.905107 2.47854,-1.905107 0.21793,0 0.3515,0.02009 0.53628,0.05423 v 2.125043 c -0.20688,-0.03716 -0.40673,-0.05523 -0.6829,-0.05523 -1.07156,0 -1.8338,0.682906 -2.03667,1.722329 -0.0352,0.203867 -0.0542,0.440876 -0.0542,0.681901 v 4.672885 h -2.27166 v -6.093932 z"
   id="path77"
   inkscape:connector-curvature="0"
   style="fill:#ffffff" />
<path
   d="m 159.39728,69.426429 h 0.0372 c 0.22295,-0.350491 0.48306,-0.740149 0.70299,-1.049466 l 2.19836,-2.905363 h 2.73162 l -3.34021,3.676645 3.80218,5.32265 h -2.78787 l -2.587,-3.97391 -0.75723,0.909871 v 3.064039 H 157.1216 V 61.337006 h 2.27568 v 8.089423 z"
   id="path79"
   inkscape:connector-curvature="0"
   style="fill:#ffffff" />
</svg>