<?xml version="1.0" encoding="utf-8"?>
<!-- Generator: Adobe Illustrator 18.0.0, SVG Export Plug-In . SVG Version: 6.00 Build 0)  -->
<!DOCTYPE svg PUBLIC "-//W3C//DTD SVG 1.1//EN" "http://www.w3.org/Graphics/SVG/1.1/DTD/svg11.dtd">
<svg version="1.1" xmlns="http://www.w3.org/2000/svg" xmlns:xlink="http://www.w3.org/1999/xlink" x="0px" y="0px"
	 viewBox="0 0 298.3 94.8" enable-background="new 0 0 298.3 94.8" xml:space="preserve">
<g id="Layer_2" display="none">
	<g display="inline">
		<text transform="matrix(1 0 0 1 44.5073 105.7441)" fill="#414042" font-family="'MyriadPro-Regular'" font-size="18.6004">The Christ Hospital Health Network</text>
		<text transform="matrix(1 0 0 1 43.4516 22.4946)" fill="#414042" font-family="'MyriadPro-Semibold'" font-size="19.2784">The</text>
		<g>
			<polygon fill="#FDB913" points="30.2,67.6 30.2,56.4 -13.3,56.4 -13.3,83.4 18.7,58.4 			"/>
			<path fill="#FFFFFF" d="M23.7,19.9c-0.2-0.5-0.5-1-0.7-1.1c-0.4-0.4-0.9-0.7-1.5-0.9c0-0.2,0.1-0.8,0-0.9
				c-0.8-0.5-1.7-0.7-1.9-1.2c-0.2-0.5-0.1-0.9-0.1-0.9c0.3-0.2,0.6-0.5,0.6-0.9c0-0.4-0.3-0.8-0.6-0.9l-0.4-8.9L19,4l-0.1,0.1
				L18.4,13c-0.4,0.2-0.6,0.5-0.6,0.9c0,0.4,0.2,0.7,0.6,0.9c0,0,0.1,0.5-0.1,0.9c-0.1,0.4-1.1,0.7-1.9,1.2c-0.1,0.1-0.1,0.7,0,0.9
				c-0.6,0.2-1.1,0.5-1.5,0.9c-0.2,0.2-0.5,0.7-0.7,1.1c-1.4,3-4.7,8.7-7,8.7c-1,0-2.3,0-3.1,0v2.4h2.5v1.8v0l0,0l0,0h0
				c0,0,0.7,0.1,0.9,0.7c0.1,0.2,0.1,0.6,0.1,0.8v0.2c0,0,0,0,0,0h0v7.2h-1v2.5H3.2v1.6c0,0,1.4,0.2,1.8,1.4c0.2,0.8,0.2,2,0.2,2
				v5.3h-18.5v1.9h43.5v-28C26.4,26.4,25,22.8,23.7,19.9z"/>
			<g>
				<path fill="#0076C0" d="M-13.3-11v65.5H5.2v-5.3c0,0,0-1.2-0.2-2c-0.4-1.3-1.8-1.4-1.8-1.4v-1.6h3.5v-2.5h1v-7.2h0c0,0,0,0,0,0
					v-0.2c0-0.2,0-0.5-0.1-0.8c-0.2-0.6-0.8-0.7-0.9-0.7h0l0,0l0,0v0v-1.8H4.1v-2.4c0.7,0,2.1,0,3.1,0c2.3,0,5.6-5.7,7-8.7
					c0.2-0.5,0.5-1,0.7-1.1c0.4-0.4,0.9-0.7,1.5-0.9c0-0.2-0.1-0.8,0-0.9c0.8-0.5,1.7-0.8,1.9-1.2c0.1-0.4,0.1-0.9,0.1-0.9
					c-0.3-0.2-0.6-0.5-0.6-0.9c0-0.4,0.3-0.8,0.6-0.9l0.4-8.9L19,4l0.1,0.1l0.4,8.9c0.4,0.2,0.6,0.5,0.6,0.9c0,0.4-0.2,0.7-0.6,0.9
					c0,0-0.1,0.4,0.1,0.9c0.2,0.5,1.1,0.7,1.9,1.2c0.1,0.1,0.1,0.7,0,0.9c0.6,0.2,1.1,0.5,1.5,0.9c0.2,0.2,0.5,0.7,0.7,1.1
					c1.3,2.9,2.7,6.5,6.6,8.5V-11H-13.3z"/>
				<g>
					<path fill="#0076C0" d="M13.1,41.5v0.2h4.4v-5.9C15.1,36.4,13.1,38.3,13.1,41.5z"/>
					<path fill="#0076C0" d="M20,35.8v5.9h4.4v-0.2C24.4,38.3,22.4,36.4,20,35.8z"/>
					<rect x="13.1" y="44.2" fill="#0076C0" width="4.4" height="10.3"/>
					<rect x="20" y="44.2" fill="#0076C0" width="4.4" height="10.3"/>
				</g>
			</g>
		</g>
		<text transform="matrix(1 0 0 1 42.0005 54.499)" fill="#414042" font-family="'MyriadPro-Semibold'" font-size="39.1387">Christ</text>
		<text transform="matrix(1 0 0 1 144.2261 54.499)"><tspan x="0" y="0" fill="#414042" font-family="'MyriadPro-Semibold'" font-size="39.1387" letter-spacing="-1">Hospi</tspan><tspan x="86.5" y="0" fill="#414042" font-family="'MyriadPro-Semibold'" font-size="39.1387" letter-spacing="-1">t</tspan><tspan x="98.2" y="0" fill="#414042" font-family="'MyriadPro-Semibold'" font-size="39.1387" letter-spacing="-1">a</tspan><tspan x="115.1" y="0" fill="#414042" font-family="'MyriadPro-Semibold'" font-size="39.1387" letter-spacing="-1">l</tspan></text>
		<text transform="matrix(1 0 0 1 275.8833 31.7598)" fill="#414042" font-family="'MyriadPro-Regular'" font-size="7.3656">TM</text>
	</g>
</g>
<g id="Layer_1">
	<g>
		<path fill="#585858" d="M60.6,22.5h-3.7v-2h9.8v2H63v11h-2.4V22.5z"/>
		<path fill="#585858" d="M67.9,19.8h2.4v5.6h0c0.3-0.4,0.7-0.8,1.2-1.1c0.5-0.3,1-0.4,1.6-0.4c1.6,0,3.3,1.1,3.3,4.1v5.5H74v-5.3
			c0-1.3-0.5-2.4-1.8-2.4c-0.9,0-1.6,0.6-1.9,1.3c-0.1,0.2-0.1,0.5-0.1,0.7v5.6h-2.4V19.8z"/>
		<path fill="#585858" d="M80.6,29.4c0.1,1.7,1.4,2.4,2.9,2.4c1.1,0,1.9-0.2,2.6-0.4l0.3,1.6c-0.8,0.3-1.9,0.6-3.3,0.6
			c-3,0-4.8-1.9-4.8-4.7c0-2.6,1.6-5,4.6-5c3,0,4,2.5,4,4.6c0,0.4,0,0.8-0.1,1H80.6z M84.7,27.8c0-0.9-0.4-2.3-1.9-2.3
			c-1.5,0-2.1,1.3-2.2,2.3H84.7z"/>
	</g>
	<g>
		<polygon fill="#FDB913" points="43.5,78.6 43.5,67.3 0,67.3 0,94.4 32,69.3 		"/>
		<path fill="#FFFFFF" d="M37,30.9c-0.2-0.5-0.5-1-0.7-1.1c-0.4-0.4-0.9-0.7-1.5-0.9c0-0.2,0.1-0.8,0-0.9c-0.8-0.5-1.7-0.7-1.9-1.2
			c-0.2-0.5-0.1-0.9-0.1-0.9c0.3-0.2,0.6-0.5,0.6-0.9c0-0.4-0.3-0.8-0.6-1l-0.4-8.9L32.3,15l-0.1,0.1L31.7,24
			c-0.4,0.2-0.6,0.5-0.6,1c0,0.4,0.2,0.7,0.6,0.9c0,0,0.1,0.5-0.1,0.9c-0.1,0.4-1.1,0.7-1.9,1.2c-0.1,0.1-0.1,0.7,0,0.9
			c-0.6,0.2-1.1,0.5-1.5,0.9c-0.2,0.2-0.5,0.7-0.7,1.1c-1.4,3-4.7,8.7-7,8.7c-1,0-2.3,0-3.1,0V42H20v1.8v0l0,0l0,0h0
			c0,0,0.7,0.1,0.9,0.7c0.1,0.2,0.1,0.6,0.1,0.8v0.2c0,0,0,0,0,0h0v7.2h-1v2.5h-3.5v1.6c0,0,1.4,0.2,1.8,1.4c0.2,0.8,0.2,2,0.2,2
			v5.3H0v1.9h43.5V39.4C39.7,37.4,38.3,33.8,37,30.9z"/>
		<g>
			<path fill="#0076C0" d="M0,0v65.5h18.5v-5.3c0,0,0-1.2-0.2-2c-0.4-1.3-1.8-1.4-1.8-1.4v-1.6H20v-2.5h1v-7.2h0c0,0,0,0,0,0v-0.2
				c0-0.2,0-0.5-0.1-0.8c-0.2-0.6-0.8-0.7-0.9-0.7h0l0,0l0,0v0V42h-2.5v-2.4c0.7,0,2.1,0,3.1,0c2.3,0,5.6-5.7,7-8.7
				c0.2-0.5,0.5-1,0.7-1.1c0.4-0.4,0.9-0.7,1.5-0.9c0-0.2-0.1-0.8,0-0.9c0.8-0.5,1.7-0.8,1.9-1.2c0.1-0.4,0.1-0.9,0.1-0.9
				c-0.3-0.2-0.6-0.5-0.6-0.9c0-0.4,0.3-0.8,0.6-1l0.4-8.9l0.1-0.1l0.1,0.1l0.4,8.9c0.4,0.2,0.6,0.5,0.6,1c0,0.4-0.2,0.7-0.6,0.9
				c0,0-0.1,0.4,0.1,0.9c0.2,0.5,1.1,0.7,1.9,1.2c0.1,0.1,0.1,0.7,0,0.9c0.6,0.2,1.1,0.5,1.5,0.9c0.2,0.2,0.5,0.7,0.7,1.1
				c1.3,2.9,2.7,6.5,6.6,8.5V0H0z"/>
			<g>
				<path fill="#0076C0" d="M26.4,52.5v0.2h4.4v-5.9C28.4,47.4,26.4,49.3,26.4,52.5z"/>
				<path fill="#0076C0" d="M33.3,46.8v5.9h4.4v-0.2C37.7,49.3,35.7,47.4,33.3,46.8z"/>
				<rect x="26.4" y="55.1" fill="#0076C0" width="4.4" height="10.3"/>
				<rect x="33.3" y="55.1" fill="#0076C0" width="4.4" height="10.3"/>
			</g>
		</g>
	</g>
	<g>
		<path fill="#585858" d="M77,64.7c-1.1,0.5-3.6,1.2-6.8,1.2c-8.4,0-13.5-5.2-13.5-13.3c0-8.7,6.1-13.9,14.1-13.9
			c3.2,0,5.4,0.6,6.4,1.1l-1,3.8c-1.3-0.5-3-1-5.2-1c-5.4,0-9.2,3.4-9.2,9.7c0,5.8,3.4,9.5,9.2,9.5c1.9,0,4-0.4,5.2-0.9L77,64.7z"/>
		<path fill="#585858" d="M80,37.6h4.8V49h0.1c0.6-0.9,1.4-1.6,2.4-2.2c1-0.5,2.1-0.9,3.3-0.9c3.2,0,6.7,2.2,6.7,8.3v11.2h-4.8V54.7
			c0-2.7-1-4.9-3.7-4.9c-1.9,0-3.2,1.3-3.8,2.7c-0.2,0.4-0.2,0.9-0.2,1.4v11.4H80V37.6z"/>
		<path fill="#585858" d="M101.5,52.5c0-2.6,0-4.5-0.2-6.1h4.1l0.2,3.6h0.1c0.9-2.7,3.2-4,5.2-4c0.5,0,0.7,0,1.1,0.1v4.5
			c-0.4-0.1-0.9-0.1-1.4-0.1c-2.3,0-3.9,1.4-4.3,3.6c-0.1,0.4-0.1,0.9-0.1,1.4v9.9h-4.8V52.5z"/>
		<path fill="#585858" d="M116.9,43.7c-1.6,0-2.7-1.2-2.7-2.6c0-1.5,1.1-2.6,2.7-2.6c1.6,0,2.7,1.1,2.7,2.6
			C119.6,42.5,118.6,43.7,116.9,43.7L116.9,43.7z M114.5,65.5V46.4h4.8v19.1H114.5z"/>
		<path fill="#585858" d="M123.4,61c1.1,0.7,3.1,1.4,4.9,1.4c2.1,0,3.1-0.9,3.1-2.2c0-1.3-0.8-1.9-3.1-2.8c-3.7-1.3-5.2-3.3-5.2-5.6
			c0-3.4,2.8-5.9,7.2-5.9c2.1,0,4,0.5,5.1,1.1l-1,3.4c-0.8-0.5-2.3-1.1-4-1.1c-1.7,0-2.7,0.9-2.7,2c0,1.2,0.9,1.8,3.3,2.7
			c3.5,1.2,5,3,5.1,5.8c0,3.5-2.7,6-7.8,6c-2.3,0-4.4-0.5-5.8-1.3L123.4,61z"/>
		<path fill="#585858" d="M144.6,41.5v4.9h4.6V50h-4.6v8.4c0,2.3,0.6,3.5,2.5,3.5c0.9,0,1.3,0,1.9-0.2l0.1,3.6
			c-0.7,0.3-2,0.5-3.5,0.5c-1.8,0-3.2-0.6-4.1-1.6c-1.1-1.1-1.5-2.9-1.5-5.4V50h-2.7v-3.6h2.7v-3.6L144.6,41.5z"/>
	</g>
	<g>
		<path fill="#585858" d="M165.1,39.1v10.6h11.2V39.1h4.8v26.4h-4.8V53.8h-11.2v11.6h-4.8V39.1H165.1z"/>
		<path fill="#585858" d="M193.3,65.9c-5.4,0-9.6-3.7-9.6-9.8c0-6.3,4.1-10.1,9.9-10.1c5.7,0,9.5,4,9.5,9.8
			C203,62.8,198.1,65.9,193.3,65.9L193.3,65.9z M193.4,62.4c2.7,0,4.7-2.7,4.7-6.5c0-3-1.3-6.4-4.6-6.4c-3.4,0-4.8,3.3-4.8,6.5
			C188.7,59.6,190.5,62.4,193.4,62.4L193.4,62.4z"/>
		<path fill="#585858" d="M205.3,61c1.1,0.7,3.1,1.4,4.9,1.4c2.1,0,3.1-0.9,3.1-2.2c0-1.3-0.8-1.9-3.1-2.8c-3.7-1.3-5.2-3.3-5.2-5.6
			c0-3.4,2.8-5.9,7.2-5.9c2.1,0,4,0.5,5.1,1.1l-1,3.4c-0.8-0.5-2.3-1.1-4-1.1c-1.7,0-2.7,0.9-2.7,2c0,1.2,0.9,1.8,3.3,2.7
			c3.5,1.2,5,3,5.1,5.8c0,3.5-2.7,6-7.8,6c-2.3,0-4.4-0.5-5.8-1.3L205.3,61z"/>
		<path fill="#585858" d="M220.3,52.7c0-2.5-0.1-4.5-0.2-6.3h4.2l0.2,2.9h0.1c1.4-2.2,3.6-3.4,6.5-3.4c4.4,0,8,3.8,8,9.7
			c0,6.9-4.3,10.2-8.7,10.2c-2.4,0-4.4-1-5.4-2.5h-0.1v9.9h-4.8V52.7z M225.2,57.5c0,0.5,0,0.9,0.1,1.3c0.5,2,2.2,3.4,4.3,3.4
			c3.1,0,4.9-2.5,4.9-6.3c0-3.4-1.6-6.1-4.7-6.1c-2,0-3.8,1.4-4.3,3.6c-0.1,0.4-0.2,0.8-0.2,1.2V57.5z"/>
		<path fill="#585858" d="M244.1,43.7c-1.6,0-2.7-1.2-2.7-2.6c0-1.5,1.1-2.6,2.7-2.6c1.6,0,2.7,1.1,2.7,2.6
			C246.9,42.5,245.8,43.7,244.1,43.7L244.1,43.7z M241.8,65.5V46.4h4.8v19.1H241.8z"/>
		<path fill="#585858" d="M255.8,41.5v4.9h4.6V50h-4.6v8.4c0,2.3,0.6,3.5,2.5,3.5c0.9,0,1.3,0,1.9-0.2l0.1,3.6
			c-0.7,0.3-2,0.5-3.5,0.5c-1.8,0-3.2-0.6-4.1-1.6c-1.1-1.1-1.5-2.9-1.5-5.4V50h-2.7v-3.6h2.7v-3.6L255.8,41.5z"/>
		<path fill="#585858" d="M277.5,60.9c0,1.7,0.1,3.4,0.3,4.6h-4.3l-0.4-2.1H273c-1.1,1.5-3.1,2.5-5.6,2.5c-3.8,0-6-2.8-6-5.7
			c0-4.8,4.3-7.2,11.3-7.2v-0.3c0-1.3-0.5-3.3-3.9-3.3c-1.9,0-3.8,0.6-5.1,1.4l-0.9-3.1c1.4-0.9,3.9-1.7,6.9-1.7
			c6.1,0,7.9,3.9,7.9,8.1V60.9z M272.8,56.1c-3.4,0-6.7,0.7-6.7,3.6c0,1.9,1.2,2.7,2.7,2.7c2,0,3.3-1.3,3.8-2.6
			c0.1-0.4,0.1-0.7,0.1-1.1V56.1z"/>
		<path fill="#585858" d="M280.7,37.6h4.8v27.8h-4.8V37.6z"/>
	</g>
	<g>
		<path fill="#585858" d="M290.7,38.3h-1.5v-0.5h3.7v0.5h-1.5v4.4h-0.6V38.3z"/>
		<path fill="#585858" d="M297.5,40.5c0-0.7-0.1-1.5-0.1-2.1h0c-0.2,0.6-0.4,1.2-0.6,1.9l-0.9,2.4h-0.5l-0.8-2.4
			c-0.2-0.7-0.4-1.3-0.6-1.9h0c0,0.6-0.1,1.5-0.1,2.2l-0.1,2.1h-0.6l0.3-5h0.8l0.8,2.4c0.2,0.6,0.4,1.2,0.5,1.7h0
			c0.1-0.5,0.3-1.1,0.5-1.7l0.9-2.4h0.8l0.3,5h-0.6L297.5,40.5z"/>
	</g>
	<polygon fill="#585858" points="62.1,78.7 62.1,85.1 68.8,85.1 68.8,78.7 71.7,78.7 71.7,94.5 68.8,94.5 68.8,87.6 62.1,87.6 
		62.1,94.5 59.2,94.5 59.2,78.7 	"/>
	<path fill="#585858" d="M76.3,89.6c0.1,2.1,1.7,3,3.5,3c1.3,0,2.3-0.2,3.2-0.5l0.4,2c-1,0.4-2.3,0.7-4,0.7c-3.7,0-5.9-2.3-5.9-5.8
		c0-3.2,1.9-6.1,5.6-6.1c3.7,0,4.9,3,4.9,5.6c0,0.5,0,1-0.1,1.2H76.3z M81.4,87.6c0-1.1-0.4-2.8-2.4-2.8c-1.8,0-2.5,1.6-2.6,2.8
		H81.4z"/>
	<path fill="#585858" d="M94.7,91.8c0,1,0,2,0.2,2.7h-2.6l-0.2-1.3H92c-0.7,0.9-1.9,1.5-3.4,1.5c-2.3,0-3.6-1.7-3.6-3.4
		c0-2.9,2.6-4.3,6.8-4.3v-0.2c0-0.8-0.3-2-2.3-2c-1.1,0-2.3,0.4-3.1,0.8l-0.6-1.9c0.8-0.5,2.3-1,4.1-1c3.7,0,4.7,2.3,4.7,4.8V91.8z
		 M91.9,88.9c-2,0-4,0.4-4,2.1c0,1.1,0.7,1.6,1.6,1.6c1.2,0,2-0.8,2.3-1.6c0.1-0.2,0.1-0.4,0.1-0.6V88.9z"/>
	<rect x="97.2" y="77.9" fill="#585858" width="2.9" height="16.7"/>
	<path fill="#585858" d="M106,80.2v2.9h2.7v2.2H106v5c0,1.4,0.4,2.1,1.5,2.1c0.5,0,0.8,0,1.1-0.1l0,2.2c-0.4,0.2-1.2,0.3-2.1,0.3
		c-1.1,0-1.9-0.3-2.5-0.9c-0.6-0.7-0.9-1.7-0.9-3.2v-5.3h-1.6v-2.2h1.6V81L106,80.2z"/>
	<path fill="#585858" d="M110.3,77.9h2.9v6.8h0c0.4-0.5,0.8-1,1.4-1.3c0.6-0.3,1.3-0.5,2-0.5c1.9,0,4,1.3,4,4.9v6.7h-2.9v-6.4
		c0-1.6-0.6-2.9-2.2-2.9c-1.1,0-1.9,0.8-2.3,1.6c-0.1,0.3-0.1,0.6-0.1,0.9v6.8h-2.9V77.9z"/>
	<path fill="#585858" d="M127.5,94.5V78.7h3.3l4.1,6.8c1,1.8,2,3.6,2.7,5.3l0,0c-0.2-2.1-0.3-4.1-0.3-6.5v-5.5h2.7v15.8h-3l-4.1-7
		c-1-1.7-2-3.7-2.8-5.4l-0.1,0c0.1,2,0.2,4.1,0.2,6.7v5.7H127.5z"/>
	<path fill="#585858" d="M144.8,89.6c0.1,2.1,1.7,3,3.5,3c1.3,0,2.3-0.2,3.2-0.5l0.4,2c-1,0.4-2.3,0.7-4,0.7c-3.7,0-5.9-2.3-5.9-5.8
		c0-3.2,1.9-6.1,5.6-6.1c3.7,0,4.9,3,4.9,5.6c0,0.5,0,1-0.1,1.2H144.8z M149.8,87.6c0-1.1-0.4-2.8-2.4-2.8c-1.8,0-2.5,1.6-2.7,2.8
		H149.8z"/>
	<path fill="#585858" d="M157.6,80.2v2.9h2.7v2.2h-2.7v5c0,1.4,0.4,2.1,1.5,2.1c0.5,0,0.8,0,1.1-0.1l0,2.2c-0.4,0.2-1.2,0.3-2.1,0.3
		c-1.1,0-1.9-0.3-2.5-0.9c-0.6-0.7-0.9-1.7-0.9-3.2v-5.3h-1.6v-2.2h1.6V81L157.6,80.2z"/>
	<path fill="#585858" d="M163.9,83.1l1.2,5.2c0.3,1.2,0.5,2.5,0.8,3.7h0c0.2-1.2,0.6-2.5,0.9-3.7l1.5-5.2h2.3l1.4,5.1
		c0.3,1.3,0.7,2.6,0.9,3.8h0c0.2-1.2,0.4-2.5,0.8-3.8l1.3-5.1h2.8l-3.6,11.4h-2.7l-1.4-4.6c-0.3-1.2-0.6-2.3-0.9-3.7h0
		c-0.3,1.4-0.5,2.5-0.9,3.7l-1.4,4.6h-2.7l-3.4-11.4H163.9z"/>
	<path fill="#585858" d="M183.9,94.8c-3.2,0-5.7-2.2-5.7-5.9c0-3.8,2.5-6,5.9-6c3.4,0,5.7,2.4,5.7,5.9
		C189.7,92.9,186.8,94.8,183.9,94.8L183.9,94.8z M184,92.7c1.6,0,2.8-1.6,2.8-3.9c0-1.8-0.8-3.8-2.8-3.8c-2,0-2.9,2-2.9,3.9
		C181.1,91,182.2,92.7,184,92.7L184,92.7z"/>
	<path fill="#585858" d="M191.6,86.8c0-1.5,0-2.7-0.1-3.7h2.5l0.1,2.2h0.1c0.6-1.6,1.9-2.4,3.1-2.4c0.3,0,0.4,0,0.7,0.1v2.7
		c-0.3,0-0.5-0.1-0.9-0.1c-1.4,0-2.3,0.9-2.6,2.2c0,0.3-0.1,0.6-0.1,0.9v5.9h-2.9V86.8z"/>
	<path fill="#585858" d="M202.3,88.1L202.3,88.1c0.3-0.4,0.7-0.9,0.9-1.3l2.8-3.7h3.5l-4.2,4.7l4.8,6.8h-3.5l-3.3-5l-1,1.2v3.9h-2.9
		V77.9h2.9V88.1z"/>
</g>
</svg>
