<?xml version="1.0" encoding="utf-8"?>
<!-- Generator: Adobe Illustrator 18.1.0, SVG Export Plug-In . SVG Version: 6.00 Build 0)  -->
<svg version="1.1" id="Layer_2" xmlns="http://www.w3.org/2000/svg" xmlns:xlink="http://www.w3.org/1999/xlink" x="0px" y="0px"
	 viewBox="0 0 463.2 120.4" enable-background="new 0 0 463.2 120.4" xml:space="preserve">
<g>
	<g>
		<path fill="#414042" d="M60.6,22.5h-3.7v-2h9.8v2H63v11h-2.4V22.5z"/>
		<path fill="#414042" d="M67.9,19.8h2.4v5.6h0c0.3-0.4,0.7-0.8,1.2-1.1c0.5-0.3,1-0.4,1.6-0.4c1.6,0,3.3,1.1,3.3,4.1v5.5H74v-5.3
			c0-1.3-0.5-2.4-1.8-2.4c-0.9,0-1.6,0.6-1.9,1.3c-0.1,0.2-0.1,0.5-0.1,0.7v5.6h-2.4V19.8z"/>
		<path fill="#414042" d="M80.6,29.4c0.1,1.7,1.4,2.4,2.9,2.4c1.1,0,1.9-0.2,2.6-0.4l0.3,1.6c-0.8,0.3-1.9,0.6-3.3,0.6
			c-3,0-4.8-1.9-4.8-4.7c0-2.6,1.6-5,4.6-5c3,0,4,2.5,4,4.6c0,0.4,0,0.8-0.1,1H80.6z M84.7,27.8c0-0.9-0.4-2.3-1.9-2.3
			c-1.5,0-2.1,1.3-2.2,2.3H84.7z"/>
	</g>
	<g>
		<polygon fill="#FDB913" points="43.5,78.6 43.5,67.3 0,67.3 0,94.4 32,69.3 		"/>
		<path fill="#FFFFFF" d="M37,30.9c-0.2-0.5-0.5-1-0.7-1.1c-0.4-0.4-0.9-0.7-1.5-0.9c0-0.2,0.1-0.8,0-0.9c-0.8-0.5-1.7-0.7-1.9-1.2
			c-0.2-0.5-0.1-0.9-0.1-0.9c0.3-0.2,0.6-0.5,0.6-0.9c0-0.4-0.3-0.8-0.6-0.9l-0.4-8.9L32.3,15l-0.1,0.1L31.7,24
			c-0.4,0.2-0.6,0.5-0.6,0.9c0,0.4,0.2,0.7,0.6,0.9c0,0,0.1,0.5-0.1,0.9c-0.1,0.4-1.1,0.7-1.9,1.2c-0.1,0.1-0.1,0.7,0,0.9
			c-0.6,0.2-1.1,0.5-1.5,0.9c-0.2,0.2-0.5,0.7-0.7,1.1c-1.4,3-4.7,8.7-7,8.7c-1,0-2.3,0-3.1,0V42H20v1.8v0l0,0l0,0h0
			c0,0,0.7,0.1,0.9,0.7c0.1,0.2,0.1,0.6,0.1,0.8v0.2c0,0,0,0,0,0h0v7.2h-1v2.5h-3.5v1.6c0,0,1.4,0.2,1.8,1.4c0.2,0.8,0.2,2,0.2,2
			v5.3H0v1.9h43.5v-28C39.7,37.4,38.3,33.8,37,30.9z"/>
		<g>
			<path fill="#0076C0" d="M0,0v65.5h18.5v-5.3c0,0,0-1.2-0.2-2c-0.4-1.3-1.8-1.4-1.8-1.4v-1.6H20v-2.5h1v-7.2h0c0,0,0,0,0,0v-0.2
				c0-0.2,0-0.5-0.1-0.8c-0.2-0.6-0.8-0.7-0.9-0.7h0l0,0l0,0v0V42h-2.5v-2.4c0.7,0,2.1,0,3.1,0c2.3,0,5.6-5.7,7-8.7
				c0.2-0.5,0.5-1,0.7-1.1c0.4-0.4,0.9-0.7,1.5-0.9c0-0.2-0.1-0.8,0-0.9c0.8-0.5,1.7-0.8,1.9-1.2c0.1-0.4,0.1-0.9,0.1-0.9
				c-0.3-0.2-0.6-0.5-0.6-0.9c0-0.4,0.3-0.8,0.6-0.9l0.4-8.9l0.1-0.1l0.1,0.1l0.4,8.9c0.4,0.2,0.6,0.5,0.6,0.9
				c0,0.4-0.2,0.7-0.6,0.9c0,0-0.1,0.4,0.1,0.9c0.2,0.5,1.1,0.7,1.9,1.2c0.1,0.1,0.1,0.7,0,0.9c0.6,0.2,1.1,0.5,1.5,0.9
				c0.2,0.2,0.5,0.7,0.7,1.1c1.3,2.9,2.7,6.5,6.6,8.5V0H0z"/>
			<g>
				<path fill="#0076C0" d="M26.4,52.5v0.2h4.4v-5.9C28.4,47.4,26.4,49.3,26.4,52.5z"/>
				<path fill="#0076C0" d="M33.3,46.8v5.9h4.4v-0.2C37.7,49.3,35.7,47.4,33.3,46.8z"/>
				<rect x="26.4" y="55.1" fill="#0076C0" width="4.4" height="10.3"/>
				<rect x="33.3" y="55.1" fill="#0076C0" width="4.4" height="10.3"/>
			</g>
		</g>
	</g>
	<g>
		<path fill="#414042" d="M77,64.7c-1.1,0.5-3.6,1.2-6.8,1.2c-8.4,0-13.5-5.2-13.5-13.3c0-8.7,6.1-13.9,14.1-13.9
			c3.2,0,5.4,0.6,6.4,1.1l-1,3.8c-1.3-0.5-3-1-5.2-1c-5.4,0-9.2,3.4-9.2,9.7c0,5.8,3.4,9.5,9.2,9.5c1.9,0,4-0.4,5.2-0.9L77,64.7z"/>
		<path fill="#414042" d="M80,37.6h4.8V49h0.1c0.6-0.9,1.4-1.6,2.4-2.2c1-0.5,2.1-0.9,3.3-0.9c3.2,0,6.7,2.2,6.7,8.3v11.2h-4.8V54.7
			c0-2.7-1-4.9-3.7-4.9c-1.9,0-3.2,1.3-3.8,2.7c-0.2,0.4-0.2,0.9-0.2,1.4v11.4H80V37.6z"/>
		<path fill="#414042" d="M101.5,52.5c0-2.6,0-4.5-0.2-6.1h4.1l0.2,3.6h0.1c0.9-2.7,3.2-4,5.2-4c0.5,0,0.7,0,1.1,0.1v4.5
			c-0.4-0.1-0.9-0.1-1.4-0.1c-2.3,0-3.9,1.4-4.3,3.6c-0.1,0.4-0.1,0.9-0.1,1.4v9.9h-4.8V52.5z"/>
		<path fill="#414042" d="M116.9,43.7c-1.6,0-2.7-1.2-2.7-2.6c0-1.5,1.1-2.6,2.7-2.6c1.6,0,2.7,1.1,2.7,2.6
			C119.6,42.5,118.6,43.7,116.9,43.7L116.9,43.7z M114.5,65.5V46.4h4.8v19.1H114.5z"/>
		<path fill="#414042" d="M123.4,61c1.1,0.7,3.1,1.4,4.9,1.4c2.1,0,3.1-0.9,3.1-2.2c0-1.3-0.8-1.9-3.1-2.8c-3.7-1.3-5.2-3.3-5.2-5.6
			c0-3.4,2.8-5.9,7.2-5.9c2.1,0,4,0.5,5.1,1.1l-1,3.4c-0.8-0.5-2.3-1.1-4-1.1c-1.7,0-2.7,0.9-2.7,2c0,1.2,0.9,1.8,3.3,2.7
			c3.5,1.2,5,3,5.1,5.8c0,3.5-2.7,6-7.8,6c-2.3,0-4.4-0.5-5.8-1.3L123.4,61z"/>
		<path fill="#414042" d="M144.6,41.5v4.9h4.6V50h-4.6v8.4c0,2.3,0.6,3.5,2.5,3.5c0.9,0,1.3,0,1.9-0.2l0.1,3.6
			c-0.7,0.3-2,0.5-3.5,0.5c-1.8,0-3.2-0.6-4.1-1.6c-1.1-1.1-1.5-2.9-1.5-5.4V50h-2.7v-3.6h2.7v-3.6L144.6,41.5z"/>
	</g>
	<g>
		<path fill="#414042" d="M165.1,39.1v10.6h11.2V39.1h4.8v26.4h-4.8V53.8h-11.2v11.6h-4.8V39.1H165.1z"/>
		<path fill="#414042" d="M193.3,65.9c-5.4,0-9.5-3.7-9.5-9.8c0-6.3,4.1-10.1,9.9-10.1c5.7,0,9.5,4,9.5,9.8
			C203,62.8,198.1,65.9,193.3,65.9L193.3,65.9z M193.4,62.4c2.7,0,4.7-2.7,4.7-6.5c0-3-1.3-6.4-4.6-6.4c-3.4,0-4.8,3.3-4.8,6.5
			C188.7,59.6,190.5,62.4,193.4,62.4L193.4,62.4z"/>
		<path fill="#414042" d="M205.3,61c1.1,0.7,3.1,1.4,4.9,1.4c2.1,0,3.1-0.9,3.1-2.2c0-1.3-0.8-1.9-3.1-2.8c-3.7-1.3-5.2-3.3-5.2-5.6
			c0-3.4,2.8-5.9,7.2-5.9c2.1,0,4,0.5,5.1,1.1l-1,3.4c-0.8-0.5-2.3-1.1-4-1.1c-1.7,0-2.7,0.9-2.7,2c0,1.2,0.9,1.8,3.3,2.7
			c3.5,1.2,5,3,5.1,5.8c0,3.5-2.7,6-7.8,6c-2.3,0-4.4-0.5-5.8-1.3L205.3,61z"/>
		<path fill="#414042" d="M220.3,52.7c0-2.5-0.1-4.5-0.2-6.3h4.2l0.2,2.9h0.1c1.4-2.2,3.6-3.4,6.5-3.4c4.4,0,8,3.8,8,9.7
			c0,6.9-4.3,10.2-8.7,10.2c-2.4,0-4.4-1-5.4-2.5h-0.1v9.9h-4.8V52.7z M225.2,57.5c0,0.5,0,0.9,0.1,1.3c0.5,2,2.2,3.4,4.3,3.4
			c3.1,0,4.9-2.5,4.9-6.3c0-3.4-1.6-6.1-4.7-6.1c-2,0-3.8,1.4-4.3,3.6c-0.1,0.4-0.2,0.8-0.2,1.2V57.5z"/>
		<path fill="#414042" d="M244.1,43.7c-1.6,0-2.7-1.2-2.7-2.6c0-1.5,1.1-2.6,2.7-2.6c1.6,0,2.7,1.1,2.7,2.6
			C246.9,42.5,245.8,43.7,244.1,43.7L244.1,43.7z M241.8,65.5V46.4h4.8v19.1H241.8z"/>
		<path fill="#414042" d="M255.8,41.5v4.9h4.6V50h-4.6v8.4c0,2.3,0.6,3.5,2.5,3.5c0.9,0,1.3,0,1.9-0.2l0.1,3.6
			c-0.7,0.3-2,0.5-3.5,0.5c-1.8,0-3.2-0.6-4.1-1.6c-1.1-1.1-1.5-2.9-1.5-5.4V50h-2.7v-3.6h2.7v-3.6L255.8,41.5z"/>
		<path fill="#414042" d="M277.5,60.9c0,1.7,0.1,3.4,0.3,4.6h-4.3l-0.4-2.1H273c-1.1,1.5-3.1,2.5-5.6,2.5c-3.8,0-6-2.8-6-5.7
			c0-4.8,4.3-7.2,11.3-7.2v-0.3c0-1.3-0.5-3.3-3.9-3.3c-1.9,0-3.8,0.6-5.1,1.4l-0.9-3.1c1.4-0.9,3.9-1.7,6.9-1.7
			c6.1,0,7.9,3.9,7.9,8.1V60.9z M272.8,56.1c-3.4,0-6.7,0.7-6.7,3.6c0,1.9,1.2,2.7,2.7,2.7c2,0,3.3-1.3,3.8-2.6
			c0.1-0.4,0.1-0.7,0.1-1.1V56.1z"/>
		<path fill="#414042" d="M280.7,37.6h4.8v27.8h-4.8V37.6z"/>
		<path fill="#414042" d="M296.1,39.4c1.8-0.3,4.1-0.5,7.4-0.5c3.5,0,6.1,0.7,7.8,2.2c1.6,1.3,2.6,3.4,2.6,5.8
			c0,2.5-0.8,4.5-2.2,5.9c-2,1.9-4.9,2.9-8.3,2.9c-0.9,0-1.7,0-2.3-0.2v10h-4.8V39.4z M300.9,51.7c0.6,0.2,1.4,0.2,2.3,0.2
			c3.6,0,5.8-1.8,5.8-4.9c0-2.9-2-4.5-5.4-4.5c-1.3,0-2.3,0.1-2.8,0.2V51.7z"/>
		<path fill="#414042" d="M316.3,37.6h4.8V49h0.1c0.6-0.9,1.4-1.6,2.4-2.2c1-0.5,2.1-0.9,3.3-0.9c3.2,0,6.7,2.2,6.7,8.3v11.2h-4.8
			V54.7c0-2.7-1-4.9-3.7-4.9c-1.9,0-3.2,1.3-3.8,2.7c-0.2,0.4-0.2,0.9-0.2,1.4v11.4h-4.8V37.6z"/>
		<path fill="#414042" d="M339.6,46.4l3.4,10.2c0.4,1.2,0.8,2.6,1.1,3.7h0.1c0.3-1.1,0.6-2.5,1-3.7l3-10.2h5.1l-4.8,13
			c-2.6,7.1-4.4,10.3-6.6,12.3c-1.9,1.6-3.9,2.3-5,2.4l-1.1-4c0.8-0.2,1.8-0.6,2.8-1.3c0.9-0.6,2-1.7,2.7-3c0.2-0.4,0.3-0.6,0.3-0.9
			c0-0.2,0-0.5-0.2-0.9l-7-17.5H339.6z"/>
		<path fill="#414042" d="M354,61c1.1,0.7,3.1,1.4,4.9,1.4c2.1,0,3.1-0.9,3.1-2.2c0-1.3-0.8-1.9-3.1-2.8c-3.7-1.3-5.2-3.3-5.2-5.6
			c0-3.4,2.8-5.9,7.2-5.9c2.1,0,4,0.5,5.1,1.1l-1,3.4c-0.8-0.5-2.3-1.1-4-1.1c-1.7,0-2.7,0.9-2.7,2c0,1.2,0.9,1.8,3.3,2.7
			c3.5,1.2,5,3,5.1,5.8c0,3.5-2.7,6-7.8,6c-2.3,0-4.4-0.5-5.8-1.3L354,61z"/>
		<path fill="#414042" d="M371.4,43.7c-1.6,0-2.7-1.2-2.7-2.6c0-1.5,1.1-2.6,2.7-2.6c1.6,0,2.7,1.1,2.7,2.6
			C374.2,42.5,373.1,43.7,371.4,43.7L371.4,43.7z M369,65.5V46.4h4.8v19.1H369z"/>
		<path fill="#414042" d="M391.6,64.9c-1,0.5-3,1-5.4,1c-5.9,0-9.8-3.8-9.8-9.7c0-5.7,3.9-10.1,10.6-10.1c1.8,0,3.6,0.4,4.7,0.9
			l-0.9,3.6c-0.8-0.4-1.9-0.7-3.6-0.7c-3.7,0-5.9,2.7-5.8,6.2c0,3.9,2.5,6.1,5.8,6.1c1.6,0,2.9-0.4,3.8-0.7L391.6,64.9z"/>
		<path fill="#414042" d="M396,43.7c-1.6,0-2.7-1.2-2.7-2.6c0-1.5,1.1-2.6,2.7-2.6c1.6,0,2.7,1.1,2.7,2.6
			C398.8,42.5,397.7,43.7,396,43.7L396,43.7z M393.6,65.5V46.4h4.8v19.1H393.6z"/>
		<path fill="#414042" d="M417,60.9c0,1.7,0.1,3.4,0.3,4.6h-4.3l-0.4-2.1h-0.1c-1.1,1.5-3.1,2.5-5.6,2.5c-3.8,0-6-2.8-6-5.7
			c0-4.8,4.3-7.2,11.3-7.2v-0.3c0-1.3-0.5-3.3-3.9-3.3c-1.9,0-3.8,0.6-5.1,1.4l-0.9-3.1c1.4-0.9,3.9-1.7,6.9-1.7
			c6.1,0,7.9,3.9,7.9,8.1V60.9z M412.3,56.1c-3.4,0-6.7,0.7-6.7,3.6c0,1.9,1.2,2.7,2.7,2.7c2,0,3.3-1.3,3.8-2.6
			c0.1-0.4,0.1-0.7,0.1-1.1V56.1z"/>
		<path fill="#414042" d="M420.6,52.1c0-2.2-0.1-4-0.2-5.7h4.2l0.2,2.9h0.1c0.9-1.5,2.9-3.3,6.1-3.3c3.3,0,6.8,2.2,6.8,8.2v11.3H433
			V54.7c0-2.7-1-4.8-3.6-4.8c-1.9,0-3.2,1.4-3.8,2.8c-0.2,0.4-0.2,1-0.2,1.5v11.2h-4.8V52.1z"/>
		<path fill="#414042" d="M441.3,61c1.1,0.7,3.1,1.4,4.9,1.4c2.1,0,3.1-0.9,3.1-2.2c0-1.3-0.8-1.9-3.1-2.8c-3.7-1.3-5.2-3.3-5.2-5.6
			c0-3.4,2.8-5.9,7.2-5.9c2.1,0,4,0.5,5.1,1.1l-1,3.4c-0.8-0.5-2.3-1.1-4-1.1c-1.7,0-2.7,0.9-2.7,2c0,1.2,0.9,1.8,3.3,2.7
			c3.5,1.2,5,3,5.1,5.8c0,3.5-2.7,6-7.8,6c-2.3,0-4.4-0.5-5.8-1.3L441.3,61z"/>
	</g>
	<g>
		<path fill="#414042" d="M455.6,38.3h-1.5v-0.5h3.7v0.5h-1.5v4.4h-0.6V38.3z"/>
		<path fill="#414042" d="M462.5,40.5c0-0.7-0.1-1.5-0.1-2.1h0c-0.2,0.6-0.4,1.2-0.6,1.9l-0.9,2.4h-0.5l-0.8-2.4
			c-0.2-0.7-0.4-1.3-0.6-1.9h0c0,0.6-0.1,1.5-0.1,2.2l-0.1,2.1h-0.6l0.3-5h0.8l0.8,2.4c0.2,0.6,0.4,1.2,0.5,1.7h0
			c0.1-0.5,0.3-1.1,0.5-1.7l0.9-2.4h0.8l0.3,5h-0.6L462.5,40.5z"/>
	</g>
	<g>
		<path fill="#414042" d="M61.6,105.5h-3.8v-1.4h9.3v1.4h-3.8v11.2h-1.6V105.5z"/>
		<path fill="#414042" d="M68.2,103.5h1.6v5.6h0c0.3-0.5,0.7-0.9,1.2-1.2c0.5-0.3,1.1-0.5,1.7-0.5c1.2,0,3.1,0.7,3.1,3.9v5.4h-1.6
			v-5.2c0-1.4-0.5-2.7-2.1-2.7c-1.1,0-1.9,0.7-2.2,1.6c-0.1,0.2-0.1,0.5-0.1,0.8v5.4h-1.6V103.5z"/>
		<path fill="#414042" d="M79.3,112.5c0,2.2,1.4,3.1,3.1,3.1c1.2,0,1.9-0.2,2.5-0.5l0.3,1.2c-0.6,0.3-1.6,0.6-3,0.6
			c-2.8,0-4.4-1.8-4.4-4.5c0-2.7,1.6-4.9,4.2-4.9c2.9,0,3.7,2.6,3.7,4.2c0,0.3,0,0.6-0.1,0.8H79.3z M84.1,111.3c0-1-0.4-2.7-2.3-2.7
			c-1.7,0-2.4,1.5-2.5,2.7H84.1z"/>
		<path fill="#414042" d="M100.2,116.3c-0.6,0.3-1.8,0.6-3.3,0.6c-3.5,0-6.2-2.2-6.2-6.3c0-3.9,2.7-6.6,6.5-6.6c1.5,0,2.5,0.3,3,0.5
			l-0.4,1.3c-0.6-0.3-1.5-0.5-2.5-0.5c-2.9,0-4.9,1.9-4.9,5.2c0,3.1,1.8,5,4.8,5c1,0,2-0.2,2.7-0.5L100.2,116.3z"/>
		<path fill="#414042" d="M102.1,103.5h1.6v5.6h0c0.3-0.5,0.7-0.9,1.2-1.2c0.5-0.3,1.1-0.5,1.7-0.5c1.2,0,3.1,0.7,3.1,3.9v5.4h-1.6
			v-5.2c0-1.4-0.5-2.7-2.1-2.7c-1.1,0-1.9,0.7-2.2,1.6c-0.1,0.2-0.1,0.5-0.1,0.8v5.4h-1.6V103.5z"/>
		<path fill="#414042" d="M112.3,110.5c0-1.1,0-2-0.1-2.8h1.4l0.1,1.8h0.1c0.4-1.2,1.4-2,2.5-2c0.2,0,0.3,0,0.4,0v1.5
			c-0.2,0-0.3,0-0.6,0c-1.2,0-2,0.9-2.2,2.1c0,0.2-0.1,0.5-0.1,0.8v4.8h-1.6V110.5z"/>
		<path fill="#414042" d="M119.1,106.2c-0.6,0-1-0.5-1-1c0-0.6,0.4-1,1-1c0.6,0,1,0.4,1,1C120.2,105.7,119.8,106.2,119.1,106.2
			L119.1,106.2z M118.4,116.7v-9h1.6v9H118.4z"/>
		<path fill="#414042" d="M122.4,115c0.5,0.3,1.4,0.6,2.2,0.6c1.2,0,1.7-0.6,1.7-1.3c0-0.8-0.5-1.2-1.7-1.6
			c-1.6-0.6-2.4-1.5-2.4-2.5c0-1.5,1.2-2.6,3.1-2.6c0.9,0,1.7,0.2,2.2,0.6l-0.4,1.2c-0.4-0.2-1-0.5-1.8-0.5c-1,0-1.5,0.6-1.5,1.2
			c0,0.7,0.5,1.1,1.7,1.5c1.5,0.6,2.4,1.4,2.4,2.7c0,1.6-1.2,2.7-3.3,2.7c-1,0-1.9-0.3-2.5-0.6L122.4,115z"/>
		<path fill="#414042" d="M131.8,105.5v2.2h2.3v1.2h-2.3v4.8c0,1.1,0.3,1.7,1.2,1.7c0.4,0,0.7,0,0.9-0.1l0.1,1.2
			c-0.3,0.1-0.8,0.2-1.5,0.2c-0.8,0-1.4-0.3-1.8-0.7c-0.4-0.5-0.6-1.3-0.6-2.4v-4.9h-1.4v-1.2h1.4V106L131.8,105.5z"/>
		<path fill="#414042" d="M141.4,104.1v5.2h6.1v-5.2h1.6v12.5h-1.6v-5.9h-6.1v5.9h-1.6v-12.5H141.4z"/>
		<path fill="#414042" d="M155.4,116.9c-2.4,0-4.3-1.8-4.3-4.6c0-3,2-4.8,4.5-4.8c2.6,0,4.3,1.9,4.3,4.6
			C159.9,115.4,157.6,116.9,155.4,116.9L155.4,116.9z M155.5,115.7c1.6,0,2.7-1.5,2.7-3.5c0-1.5-0.8-3.4-2.7-3.4
			c-1.9,0-2.8,1.8-2.8,3.5C152.8,114.2,153.9,115.7,155.5,115.7L155.5,115.7z"/>
		<path fill="#414042" d="M161.6,115c0.5,0.3,1.4,0.6,2.2,0.6c1.2,0,1.7-0.6,1.7-1.3c0-0.8-0.5-1.2-1.7-1.6
			c-1.6-0.6-2.4-1.5-2.4-2.5c0-1.5,1.2-2.6,3.1-2.6c0.9,0,1.7,0.2,2.2,0.6l-0.4,1.2c-0.4-0.2-1-0.5-1.8-0.5c-1,0-1.5,0.6-1.5,1.2
			c0,0.7,0.5,1.1,1.7,1.5c1.5,0.6,2.4,1.4,2.4,2.7c0,1.6-1.2,2.7-3.3,2.7c-1,0-1.9-0.3-2.5-0.6L161.6,115z"/>
		<path fill="#414042" d="M169.1,110.6c0-1.2,0-2.1-0.1-2.9h1.5l0.1,1.5h0c0.7-1.1,1.7-1.7,3.2-1.7c2.2,0,3.8,1.8,3.8,4.6
			c0,3.2-2,4.8-4.1,4.8c-1.2,0-2.2-0.5-2.8-1.4h0v4.9h-1.6V110.6z M170.7,113c0,0.2,0,0.5,0.1,0.7c0.3,1.1,1.3,1.9,2.4,1.9
			c1.7,0,2.7-1.4,2.7-3.5c0-1.8-0.9-3.3-2.7-3.3c-1.1,0-2.2,0.8-2.5,2c0,0.2-0.1,0.4-0.1,0.7V113z"/>
		<path fill="#414042" d="M180.3,106.2c-0.6,0-1-0.5-1-1c0-0.6,0.4-1,1-1c0.6,0,1,0.4,1,1C181.4,105.7,181,106.2,180.3,106.2
			L180.3,106.2z M179.6,116.7v-9h1.6v9H179.6z"/>
		<path fill="#414042" d="M185.8,105.5v2.2h2.3v1.2h-2.3v4.8c0,1.1,0.3,1.7,1.2,1.7c0.4,0,0.7,0,0.9-0.1l0.1,1.2
			c-0.3,0.1-0.8,0.2-1.5,0.2c-0.8,0-1.4-0.3-1.8-0.7c-0.4-0.5-0.6-1.3-0.6-2.4v-4.9h-1.4v-1.2h1.4V106L185.8,105.5z"/>
		<path fill="#414042" d="M196.2,114.5c0,0.8,0,1.5,0.1,2.2h-1.5l-0.1-1.1h-0.1c-0.5,0.7-1.5,1.3-2.8,1.3c-1.8,0-2.8-1.3-2.8-2.6
			c0-2.2,1.9-3.4,5.4-3.3v-0.2c0-0.7-0.2-2.1-2-2.1c-0.9,0-1.7,0.2-2.4,0.7l-0.4-1.1c0.7-0.5,1.8-0.8,3-0.8c2.8,0,3.4,1.9,3.4,3.7
			V114.5z M194.6,112.1c-1.8,0-3.8,0.3-3.8,2c0,1.1,0.7,1.6,1.5,1.6c1.2,0,2-0.7,2.2-1.5c0.1-0.2,0.1-0.4,0.1-0.5V112.1z"/>
		<path fill="#414042" d="M198.7,103.5h1.6v13.2h-1.6V103.5z"/>
		<path fill="#414042" d="M208.5,104.1v5.2h6.1v-5.2h1.6v12.5h-1.6v-5.9h-6.1v5.9h-1.6v-12.5H208.5z"/>
		<path fill="#414042" d="M219.8,112.5c0,2.2,1.4,3.1,3.1,3.1c1.2,0,1.9-0.2,2.5-0.5l0.3,1.2c-0.6,0.3-1.6,0.6-3,0.6
			c-2.8,0-4.4-1.8-4.4-4.5c0-2.7,1.6-4.9,4.2-4.9c2.9,0,3.7,2.6,3.7,4.2c0,0.3,0,0.6-0.1,0.8H219.8z M224.5,111.3
			c0-1-0.4-2.7-2.3-2.7c-1.7,0-2.4,1.5-2.5,2.7H224.5z"/>
		<path fill="#414042" d="M234.4,114.5c0,0.8,0,1.5,0.1,2.2H233l-0.1-1.1h-0.1c-0.5,0.7-1.5,1.3-2.8,1.3c-1.8,0-2.8-1.3-2.8-2.6
			c0-2.2,1.9-3.4,5.4-3.3v-0.2c0-0.7-0.2-2.1-2-2.1c-0.9,0-1.7,0.2-2.4,0.7l-0.4-1.1c0.7-0.5,1.8-0.8,3-0.8c2.8,0,3.4,1.9,3.4,3.7
			V114.5z M232.8,112.1c-1.8,0-3.8,0.3-3.8,2c0,1.1,0.7,1.6,1.5,1.6c1.2,0,2-0.7,2.2-1.5c0.1-0.2,0.1-0.4,0.1-0.5V112.1z"/>
		<path fill="#414042" d="M236.9,103.5h1.6v13.2h-1.6V103.5z"/>
		<path fill="#414042" d="M243.1,105.5v2.2h2.3v1.2h-2.3v4.8c0,1.1,0.3,1.7,1.2,1.7c0.4,0,0.7,0,0.9-0.1l0.1,1.2
			c-0.3,0.1-0.8,0.2-1.5,0.2c-0.8,0-1.4-0.3-1.8-0.7c-0.4-0.5-0.6-1.3-0.6-2.4v-4.9h-1.4v-1.2h1.4V106L243.1,105.5z"/>
		<path fill="#414042" d="M247.2,103.5h1.6v5.6h0c0.3-0.5,0.7-0.9,1.2-1.2c0.5-0.3,1.1-0.5,1.7-0.5c1.2,0,3.1,0.7,3.1,3.9v5.4h-1.6
			v-5.2c0-1.4-0.5-2.7-2.1-2.7c-1.1,0-1.9,0.7-2.2,1.6c-0.1,0.2-0.1,0.5-0.1,0.8v5.4h-1.6V103.5z"/>
		<path fill="#414042" d="M261.3,116.7v-12.5h1.8l4,6.3c0.9,1.5,1.7,2.8,2.2,4.1l0.1,0c-0.1-1.7-0.2-3.2-0.2-5.1v-5.3h1.5v12.5h-1.6
			l-4-6.4c-0.9-1.4-1.7-2.8-2.3-4.2l-0.1,0c0.1,1.6,0.1,3.1,0.1,5.2v5.4H261.3z"/>
		<path fill="#414042" d="M274.3,112.5c0,2.2,1.4,3.1,3.1,3.1c1.2,0,1.9-0.2,2.5-0.5l0.3,1.2c-0.6,0.3-1.6,0.6-3,0.6
			c-2.8,0-4.4-1.8-4.4-4.5c0-2.7,1.6-4.9,4.2-4.9c2.9,0,3.7,2.6,3.7,4.2c0,0.3,0,0.6-0.1,0.8H274.3z M279.1,111.3
			c0-1-0.4-2.7-2.3-2.7c-1.7,0-2.4,1.5-2.5,2.7H279.1z"/>
		<path fill="#414042" d="M284.6,105.5v2.2h2.3v1.2h-2.3v4.8c0,1.1,0.3,1.7,1.2,1.7c0.4,0,0.7,0,0.9-0.1l0.1,1.2
			c-0.3,0.1-0.8,0.2-1.5,0.2c-0.8,0-1.4-0.3-1.8-0.7c-0.4-0.5-0.6-1.3-0.6-2.4v-4.9h-1.4v-1.2h1.4V106L284.6,105.5z"/>
		<path fill="#414042" d="M289.5,107.7l1.2,4.6c0.2,1,0.5,2,0.7,2.9h0.1c0.2-0.9,0.5-1.9,0.8-2.9l1.5-4.6h1.4l1.4,4.5
			c0.3,1.1,0.6,2,0.8,2.9h0.1c0.1-0.9,0.4-1.9,0.7-2.9l1.3-4.5h1.6l-2.9,9h-1.5l-1.4-4.3c-0.3-1-0.6-1.9-0.8-3h0
			c-0.2,1.1-0.5,2-0.8,3l-1.5,4.3h-1.5l-2.7-9H289.5z"/>
		<path fill="#414042" d="M305.9,116.9c-2.4,0-4.3-1.8-4.3-4.6c0-3,2-4.8,4.5-4.8c2.6,0,4.3,1.9,4.3,4.6
			C310.3,115.4,308,116.9,305.9,116.9L305.9,116.9z M305.9,115.7c1.6,0,2.7-1.5,2.7-3.5c0-1.5-0.8-3.4-2.7-3.4
			c-1.9,0-2.8,1.8-2.8,3.5C303.2,114.2,304.3,115.7,305.9,115.7L305.9,115.7z"/>
		<path fill="#414042" d="M312.3,110.5c0-1.1,0-2-0.1-2.8h1.4l0.1,1.8h0.1c0.4-1.2,1.4-2,2.5-2c0.2,0,0.3,0,0.4,0v1.5
			c-0.2,0-0.3,0-0.6,0c-1.2,0-2,0.9-2.2,2.1c0,0.2-0.1,0.5-0.1,0.8v4.8h-1.6V110.5z"/>
		<path fill="#414042" d="M320,111.8L320,111.8c0.3-0.3,0.6-0.7,0.8-1l2.7-3.1h2l-3.5,3.7l4,5.3h-2l-3.1-4.3l-0.8,0.9v3.4h-1.6
			v-13.2h1.6V111.8z"/>
	</g>
</g>
</svg>
