<?xml version="1.0" encoding="utf-8"?>
<!-- Generator: Adobe Illustrator 18.1.1, SVG Export Plug-In . SVG Version: 6.00 Build 0)  -->
<svg version="1.1" id="Layer_1" xmlns="http://www.w3.org/2000/svg" xmlns:xlink="http://www.w3.org/1999/xlink" x="0px" y="0px"
	 viewBox="0 0 18.5 18.5" enable-background="new 0 0 18.5 18.5" xml:space="preserve">
<path fill="#FFFFFF" d="M15.1,17.9L0.6,3.4c-0.8-0.8-0.8-2.1,0-2.8l0,0c0.8-0.8,2.1-0.8,2.8,0l14.5,14.5c0.8,0.8,0.8,2.1,0,2.8l0,0
	C17.1,18.7,15.9,18.7,15.1,17.9z"/>
<path fill="#FFFFFF" d="M0.6,15.1L15.1,0.6c0.8-0.8,2.1-0.8,2.8,0l0,0c0.8,0.8,0.8,2.1,0,2.8L3.4,17.9c-0.8,0.8-2.1,0.8-2.8,0l0,0
	C-0.2,17.1-0.2,15.9,0.6,15.1z"/>
</svg>
