<svg xmlns="http://www.w3.org/2000/svg" xmlns:xlink="http://www.w3.org/1999/xlink" preserveAspectRatio="xMidYMid" width="17" height="21" viewBox="0 0 17 21">
  <defs>
    <style>

      .cls-2 {
        fill: #eb8a21;
      }
    </style>
  </defs>
  <path d="M15.993,20.753 C14.617,21.464 13.806,20.483 13.806,20.483 C13.806,20.483 10.498,15.605 10.498,15.605 C9.719,15.857 8.889,15.997 8.025,15.997 C3.599,15.997 0.010,12.418 0.010,8.003 C0.010,3.587 3.599,0.007 8.025,0.007 C12.452,0.007 16.040,3.587 16.040,8.003 C16.040,10.361 15.011,12.474 13.382,13.937 C13.382,13.937 16.754,18.646 16.754,18.646 C17.590,20.019 15.993,20.753 15.993,20.753 ZM7.931,1.663 C4.493,1.663 1.705,4.442 1.705,7.872 C1.705,11.302 4.493,14.082 7.931,14.082 C11.369,14.082 14.156,11.302 14.156,7.872 C14.156,4.442 11.369,1.663 7.931,1.663 Z" id="path-1" class="cls-2" fill-rule="evenodd"/>
</svg>
